<?xml version="1.0" encoding="utf-8"?>
<!-- Generator: Adobe Illustrator 21.1.0, SVG Export Plug-In . SVG Version: 6.00 Build 0)  -->
<svg version="1.1" xmlns="http://www.w3.org/2000/svg" xmlns:xlink="http://www.w3.org/1999/xlink" x="0px" y="0px"
	 viewBox="0 0 136 150.8" style="enable-background:new 0 0 136 150.8;" xml:space="preserve">
<style type="text/css">
	.st0{fill:#EF3E5E;}
	.st1{fill:none;stroke:#EF3F5F;stroke-width:0.7277;stroke-linecap:round;stroke-miterlimit:10;}
	.st2{fill:none;stroke:#EF3F5F;stroke-width:0.3809;stroke-linecap:round;stroke-miterlimit:10;}
	.st3{fill:none;stroke:#EF3F5F;stroke-width:0.6653;stroke-linecap:round;stroke-miterlimit:10;}
	.st4{fill:none;stroke:#EF3F5F;stroke-width:0.4366;stroke-linecap:round;stroke-miterlimit:10;}
	.st5{fill:#FFFFFF;stroke:#EF3F5F;stroke-width:0.3809;stroke-linecap:round;stroke-miterlimit:10;}
	.st6{fill:#FFFFFF;}
</style>
<g id="colours">
	<g>
		<path class="st0" d="M70.2,119c0,0,11.8-6.3,14.2-11.1c2.4-4.8-1.7-3.7-6-1.2c-4.3,2.5-8.5,5.6-21.1,5.8s-19.7-9.1-17.7-2.2
			C42.5,117.3,56.6,125.6,70.2,119z"/>
		<path class="st1" d="M72.7,127c18.5-2.8,33.3-17.4,36.8-36.2"/>
		<path class="st1" d="M23.9,94.5c3.3,12,11.3,22,21.8,27.8"/>
		<path class="st2" d="M23.7,70.8c-0.1,0.2-0.1,0.4-0.2,0.7"/>
		<path class="st1" d="M88.8,43.4c-6.6-4-14.3-6.4-22.5-6.4c-20.5,0-37.7,14.3-42.6,33.8"/>
		<path class="st2" d="M110.1,77.6c0-0.3-0.1-0.7-0.1-1"/>
		<path class="st1" d="M72.9,126.9c3.5-1.2,6.7-3.1,9.4-5.4"/>
		<path class="st1" d="M41.3,117.9c5.3,6.5,13.3,10.6,22.3,10.6c3.3,0,6.4-0.6,9.4-1.6"/>
		<path class="st3" d="M67.6,97.8c2,0.7,4.1,1,6.3,1c10.1,0,18.3-7.6,18.3-16.9s-8.2-16.9-18.3-16.9s-18.3,7.6-18.3,16.9
			c0,5,2.3,9.4,6,12.5"/>
		<path class="st2" d="M46.9,95.5c0.3-0.3,0.6-0.5,0.9-0.8"/>
		<path class="st3" d="M50.7,90.9c1.3-2.4,2.1-5.2,2.1-8.1c0-9.2-7.6-16.7-16.9-16.7S19,73.6,19,82.8s7.6,16.7,16.9,16.7
			c2.9,0,5.7-0.7,8-2"/>
		<circle class="st0" cx="69.9" cy="84.7" r="2.1"/>
		<circle class="st0" cx="31.9" cy="85.2" r="1.9"/>
		<path class="st2" d="M43.5,99.6c-0.3-0.3-0.7-0.4-1.2-0.4c-1,0-1.8,0.8-1.8,1.8c0,0.9,0.7,1.7,1.6,1.8"/>
		<path class="st2" d="M42.1,102.5c0,0.2-0.1,0.3-0.1,0.5c0,0.8,0.5,1.4,1.1,1.7"/>
		<path class="st2" d="M45.7,102.5c-0.2-0.8-0.9-1.3-1.8-1.3c-0.8,0-1.5,0.6-1.8,1.3"/>
		<path class="st2" d="M40.1,103.3c-0.7,0-1.2-0.5-1.2-1.1c0-0.6,0.5-1.1,1.2-1.1c0.1,0,0.2,0,0.3,0"/>
		<path class="st2" d="M60.6,107.2c0.8-0.5,1.3-1.4,1.3-2.4c0-1.6-1.3-2.9-2.9-2.9c-1.6,0-2.9,1.3-2.9,2.9s1.3,2.9,2.9,2.9
			C59.6,107.7,60.1,107.5,60.6,107.2"/>
		<circle class="st2" cx="67.5" cy="106.6" r="2.8"/>
		<path class="st2" d="M69.9,105.2c0.3,0.1,0.7,0.2,1.1,0.2c0.9,0,1.7-0.4,2.2-1.1"/>
		<path class="st2" d="M73.5,101.6c-0.4-1-1.4-1.7-2.6-1.7c-1.5,0-2.8,1.2-2.8,2.8c0,0.5,0.1,0.9,0.3,1.3"/>
		<path class="st2" d="M48.3,104.4c-0.1,0-0.2,0-0.2,0c-1.3,0-2.3,0.9-2.3,2.1s1,2.1,2.3,2.1c1.2,0,2.1-0.8,2.3-1.8"/>
		<path class="st0" d="M53.2,103.2c0.6,0.1,1.1,0.2,1.7,0.2c0.6,0,1.2-0.1,1.7-0.2c0,0,1.7-1.9,3.1-3c2.7-2,5.3,0.7,3,2.3"/>
		<path class="st4" d="M54.1,89.8c-3.7,0.3-6.6,3.3-6.6,6.8c0,2.3,1.2,4.3,3,5.5"/>
		<ellipse class="st2" cx="75.1" cy="103.2" rx="2.3" ry="2.1"/>
		<path class="st2" d="M65.9,104.4c-0.1-1.2-1.1-2.1-2.4-2.1c-0.8,0-1.6,0.4-2,1"/>
		<path class="st2" d="M61.6,106.1c0.4,0.5,1.1,0.8,1.9,0.8c0.5,0,0.9-0.1,1.3-0.4"/>
		<path class="st2" d="M48.3,104.4C48.3,104.4,48.3,104.5,48.3,104.4c0,1.4,1.1,2.4,2.6,2.4s2.6-1,2.6-2.3s-1.1-2.3-2.6-2.3
			C49.5,102.2,48.4,103.2,48.3,104.4"/>
		<path class="st2" d="M43.2,104.6c0.3-1.2,1.5-2,2.9-2c1,0,1.8,0.4,2.4,1"/>
		<path class="st2" d="M43.2,106c-0.1-0.2-0.1-0.5-0.1-0.7c0-0.2,0-0.5,0.1-0.7"/>
		<path class="st2" d="M46.4,108c-0.1,0-0.2,0-0.3,0c-1.4,0-2.6-0.8-2.9-2"/>
		<path class="st4" d="M47.7,95.6c-0.1,0-0.2,0-0.2,0c-2.1,0-3.8,1.7-3.9,3.9"/>
		<path class="st2" d="M43.5,99.5c0,0,0,0.1,0,0.1c0,0.5,0.1,1,0.3,1.5"/>
		<path class="st4" d="M67,101.1c0.4-0.7,0.6-1.4,0.6-2.2c0-2.5-2.1-4.5-4.7-4.5c-1.3,0-2.4,0.5-3.3,1.3"/>
		<ellipse class="st2" cx="77.7" cy="101" rx="1.3" ry="1.1"/>
		<path class="st2" d="M70.2,106.7c0.4,0.4,1,0.6,1.6,0.6c1.2,0,2.2-0.9,2.2-1.9c0-0.1,0-0.3-0.1-0.4"/>
		<path class="st2" d="M67.2,101.1c-0.1,0-0.3-0.1-0.5-0.1c-1,0-1.8,0.8-1.8,1.8"/>
		<path class="st2" d="M68.2,102c-0.2-0.4-0.6-0.7-1.1-0.8"/>
		<path class="st2" d="M60.5,107.3c0,1.1,1,2,2.1,2s2.1-0.9,2.1-2"/>
		<path class="st2" d="M56.6,106.6c-0.2,0.3-0.3,0.6-0.3,1c0,1.1,1,2,2.1,2s2.1-0.9,2.1-2c0-0.1,0-0.3,0-0.4"/>
		<path class="st2" d="M42.1,102.6c-1-0.2-2,0.4-2.3,1.3c-0.3,1,0.4,2,1.5,2.3c0.6,0.2,1.3,0,1.8-0.3"/>
		<path class="st2" d="M76.5,100.4c-0.3-0.6-0.9-1-1.6-1c-1,0-1.7,0.7-1.8,1.5"/>
		<path class="st2" d="M49.6,107.9c0.3,1,1.4,1.8,2.6,1.8c1.5,0,2.7-1.1,2.7-2.5c0-1-0.6-1.8-1.4-2.2"/>
		<path class="st4" d="M55.7,84c0-0.7-0.7-1.4-1.5-1.4c-0.8,0-1.5,0.6-1.5,1.4"/>
		<line class="st4" x1="92" y1="80.2" x2="110.1" y2="77.6"/>
		<path class="st0" d="M47,102.7c0,0-1.8-2.1,0.7-1.8c1.2,0.1,2.3,0.8,3.1,1.4"/>
		<path class="st3" d="M98.4,49c-0.3,0-0.5,0-0.8,0c-5.1,0-9.2,4.1-9.2,9.2s4.1,9.2,9.2,9.2c2.9,0,5.6-1.4,7.3-3.5"/>
		<path class="st3" d="M98.2,67.4c-0.7,1.1-1.1,2.4-1.1,3.7c0,4,3.5,7.2,7.9,7.2c4.4,0,7.9-3.2,7.9-7.2c0-1.5-0.5-3-1.4-4.1"/>
		<path class="st3" d="M104.9,64c1.2,1.8,3.2,3,5.6,3c3.6,0,6.6-2.9,6.6-6.5c0-1.3-0.4-2.5-1.1-3.5"/>
		<path class="st3" d="M109.2,54.1c-3,0.6-5.3,3.2-5.3,6.3c0,1.3,0.4,2.5,1,3.5"/>
		<ellipse class="st3" cx="114.2" cy="51.1" rx="5.8" ry="6"/>
		<path class="st3" d="M104.5,57.6c-3.4-0.3-6.1-3.3-6.1-6.8c0-3.8,3-6.8,6.7-6.8c2.2,0,4.1,1,5.3,2.6"/>
		<path class="st3" d="M89.5,53.8c-1.4-1.4-2.3-3.5-2.3-5.7c0-4.4,3.4-8,7.7-8c3.1,0,5.7,1.9,6.9,4.6"/>
		<path class="st3" d="M36.3,49.1c-1.3-0.6-2.7-1-4.2-1c-5.1,0-9.2,3.9-9.2,8.7c0,2.7,1.3,5.1,3.3,6.7"/>
		<path class="st3" d="M45.8,42.2c-1.4-1.7-3.7-2.7-6.3-2.7c-4.3,0-7.8,2.9-7.8,6.5c0,0.8,0.2,1.5,0.4,2.2"/>
		<path class="st3" d="M19,49.8c-1.3,1.2-2.2,3-2.2,4.9c0,2.8,1.7,5.2,4.1,6.2"/>
		<path class="st3" d="M23.7,48c-1.8,0-3.4,0.7-4.6,1.8"/>
		<path class="st3" d="M23.1,58.9c-1.7,0.9-3,3.2-3,5.8c0,2.9,1.5,5.3,3.5,6"/>
		<path class="st3" d="M34.6,40.8C33.5,40.3,32.3,40,31,40c-4.1,0-7.4,3-7.4,6.8c0,1.6,0.6,3.1,1.6,4.3"/>
		<path class="st3" d="M19.1,49.7c-1-1-1.7-2.4-1.7-3.9c0-3,2.5-5.5,5.6-5.5c1.2,0,2.4,0.4,3.3,1"/>
		<g>
			<circle class="st4" cx="17.9" cy="72.1" r="2.2"/>
		</g>
		<ellipse class="st4" cx="36.3" cy="35.2" rx="3.2" ry="3.2"/>
		<ellipse class="st4" cx="88.3" cy="33.8" rx="6" ry="5.8"/>
		<g>
			
				<ellipse transform="matrix(0.4593 -0.8883 0.8883 0.4593 2.1946 141.3434)" class="st4" cx="117.2" cy="68.9" rx="2.4" ry="2.2"/>
		</g>
		<path class="st5" d="M58.6,112.4v2.4c0,0.9,0.7,1.6,1.6,1.6h2.7c0.9,0,1.6-0.7,1.6-1.6v-2.8"/>
		<path class="st5" d="M65.1,111.8l0.4,1.8c0.2,1.1,1.3,1.8,2.4,1.6l0.1,0c2-0.4,3.3-2.4,2.9-4.4l0-0.2"/>
		<path class="st5" d="M71.6,110.2l0.6,1.8c0.2,0.7,1,1.1,1.8,0.9l0,0c2.1-0.7,3.3-3,2.6-5.1l0-0.1"/>
		<path class="st5" d="M77.2,107.4l0.5,1.5c0,0.1,0.2,0.2,0.4,0.2h0c1-0.3,1.5-1.4,1.2-2.4l-0.1-0.4"/>
		<path class="st5" d="M52.2,111.9l-0.3,2.3c-0.1,1.1,0.6,2.1,1.7,2.2l1.1,0.1c0.9,0.1,1.7-0.5,1.8-1.4l0.3-2.6"/>
		<path class="st5" d="M48.3,111.1l-0.3,1.9c-0.1,0.8,0.4,1.5,1.2,1.6l0.4,0.1c0.7,0.1,1.4-0.4,1.5-1.1l0.2-1.7"/>
		<path class="st5" d="M45.1,109.8l-0.2,1.1c-0.3,1.1,0.4,2.2,1.5,2.5h0c0.4,0.1,0.7-0.1,0.8-0.5l0.5-2"/>
		<path class="st5" d="M44.6,109.5l-0.4,1.8l0,0l0,0c-0.8-0.2-1.2-0.9-1.1-1.7l0.1-0.7"/>
		<path class="st5" d="M80.2,112.5c-0.3-0.4-0.9-0.4-1.3-0.1l0,0c-0.3,0.2-0.3,0.5-0.1,0.8l0.2,0.3"/>
		<path class="st5" d="M78.1,114L78.1,114c-0.4-0.7-1.1-0.9-1.7-0.5l-0.5,0.3c-0.4,0.3-0.6,0.8-0.3,1.2l0.3,0.5"/>
		<path class="st5" d="M75.5,115.8l-0.2-0.4c-0.3-0.5-1-0.7-1.5-0.4l-1.3,0.7c-0.5,0.3-0.6,0.9-0.4,1.4l0.3,0.6"/>
		<path class="st5" d="M71.3,118.4l-0.3-0.6c-0.2-0.6-0.9-0.9-1.5-0.6l-1.5,0.6c-0.6,0.2-0.8,0.9-0.6,1.4l0.3,0.8"/>
		<path class="st5" d="M62.8,121.1l0,0.1l3.9-0.9l-0.2-0.9c-0.1-0.6-0.7-0.9-1.3-0.8l-1.8,0.4c-0.6,0.1-1,0.8-0.9,1.4L62.8,121.1"/>
		<path class="st5" d="M61.6,121.3l-0.1-0.9c0-0.8-0.7-1.4-1.6-1.4l-0.6,0c-0.7,0-1.2,0.6-1.2,1.4l0.1,1"/>
		<path class="st5" d="M57.3,121.2l0.1-1.1c0-0.7-0.5-1.2-1.1-1.3l-0.6,0c-0.5,0-0.9,0.3-0.9,0.8l-0.1,1.1"/>
		<path class="st5" d="M53.3,120.4l0.1-0.6c0.1-0.8-0.4-1.5-1.1-1.6l-0.4-0.1c-0.5-0.1-0.9,0.2-1,0.7l-0.1,0.8"/>
		<path class="st5" d="M49.3,119l0.3-0.6c0.3-0.6,0-1.2-0.5-1.5l-1.5-0.7c-0.5-0.2-1.1,0-1.3,0.5l-0.2,0.5"/>
		<path class="st5" d="M45,116.5c0.3-0.5,0.2-1.2-0.2-1.6l-1.2-1c-0.4-0.3-1-0.3-1.3,0.1l-0.1,0.1"/>
		<path class="st1" d="M108,79.5c0,0,0.8-2.3,4.4-2.3c3.8,0.1,4.8,5.1,2.2,8.6c-2.7,3.6-5.6,5.4-5.6,5.4"/>
		<path class="st4" d="M108.7,82.6c0,0,2-1.4,2.8,0.2c0.4,0.9-0.3,3.5-2.7,4.4"/>
		<path class="st4" d="M50.7,54c0,0,4.5-2.8,16.4,0.6"/>
		<path class="st4" d="M47.5,49.9c0,0,7.4-4.7,27.1,1"/>
		<path class="st4" d="M49,45.4c0,0,8.1-5.1,29.7,1.1"/>
		<path class="st1" d="M70.2,119c0,0,11.8-6.3,14.2-11.1c2.4-4.8-1.7-3.7-6-1.2c-4.3,2.5-8.5,5.6-21.1,5.8s-19.7-9.1-17.7-2.2
			C42.5,117.3,56.6,125.6,70.2,119z"/>
		<g>
			<path class="st6" d="M60.3,35.7c-5.4,0-9.8-4-9.8-8.9s4.4-8.9,9.8-8.9s9.8,4,9.8,8.9S65.7,35.7,60.3,35.7z"/>
			<ellipse class="st4" cx="60.2" cy="26.6" rx="8" ry="7.2"/>
			<path class="st0" d="M64.1,26.1c-0.2,0-0.4-0.2-0.4-0.4c0-0.2,0.2-0.4,0.4-0.4c0.2,0,0.4,0.2,0.4,0.4
				C64.4,25.9,64.3,26.1,64.1,26.1z"/>
			<path class="st0" d="M53.9,26.7c0,0.2-0.2,0.4-0.4,0.4c-0.2,0-0.4-0.2-0.4-0.4c0-0.2,0.2-0.4,0.4-0.4
				C53.7,26.3,53.9,26.4,53.9,26.7z"/>
			<path class="st0" d="M59.7,26.6c0,0.2-0.2,0.4-0.4,0.4c-0.2,0-0.4-0.2-0.4-0.4c0-0.2,0.2-0.4,0.4-0.4
				C59.5,26.3,59.6,26.4,59.7,26.6z"/>
			<path class="st0" d="M65.4,24.7c0,0.2-0.2,0.4-0.4,0.4c-0.2,0-0.4-0.2-0.4-0.4c0-0.2,0.2-0.4,0.4-0.4
				C65.2,24.4,65.4,24.5,65.4,24.7z"/>
			<path class="st0" d="M65,27c-0.2,0-0.4-0.2-0.4-0.4c0-0.2,0.2-0.4,0.4-0.4c0.2,0,0.4,0.2,0.4,0.4C65.4,26.9,65.2,27,65,27z"/>
			<path class="st0" d="M53.5,24.4c0.2,0,0.4,0.2,0.4,0.4c0,0.2-0.2,0.4-0.4,0.4c-0.2,0-0.4-0.2-0.4-0.4
				C53.1,24.5,53.3,24.4,53.5,24.4z"/>
			<path class="st0" d="M53.9,28.6c0,0.2-0.2,0.4-0.4,0.4c-0.2,0-0.4-0.2-0.4-0.4c0-0.2,0.2-0.4,0.4-0.4
				C53.7,28.2,53.9,28.4,53.9,28.6z"/>
			<path class="st0" d="M57.7,28.6c0,0.2-0.2,0.4-0.4,0.4c-0.2,0-0.4-0.2-0.4-0.4c0-0.2,0.2-0.4,0.4-0.4
				C57.6,28.2,57.7,28.3,57.7,28.6z"/>
			<path class="st0" d="M63.5,28.6c0,0.2-0.2,0.4-0.4,0.4c-0.2,0-0.4-0.2-0.4-0.4c0-0.2,0.2-0.4,0.4-0.4
				C63.3,28.2,63.5,28.4,63.5,28.6z"/>
			<path class="st0" d="M57.7,30.5c0,0.2-0.2,0.4-0.4,0.4c-0.2,0-0.4-0.2-0.4-0.4c0-0.2,0.2-0.4,0.4-0.4
				C57.6,30.1,57.7,30.3,57.7,30.5z"/>
			<path class="st0" d="M63.5,30.5c0,0.2-0.2,0.4-0.4,0.4c-0.2,0-0.4-0.2-0.4-0.4c0-0.2,0.2-0.4,0.4-0.4
				C63.3,30.1,63.5,30.3,63.5,30.5z"/>
			<path class="st0" d="M57.3,32c0.2,0,0.4,0.2,0.4,0.4c0,0.2-0.2,0.4-0.4,0.4c-0.2,0-0.4-0.2-0.4-0.4C57,32.2,57.1,32,57.3,32z"/>
			<path class="st0" d="M60.2,31.1c0.2,0,0.4,0.2,0.4,0.4c0,0.2-0.2,0.4-0.4,0.4c-0.2,0-0.4-0.2-0.4-0.4
				C59.8,31.2,60,31.1,60.2,31.1z"/>
			<path class="st0" d="M64.4,27.6c0,0.2-0.2,0.4-0.4,0.4c-0.2,0-0.4-0.2-0.4-0.4c0-0.2,0.2-0.4,0.4-0.4
				C64.3,27.2,64.4,27.4,64.4,27.6z"/>
			<path class="st0" d="M62.1,28c-0.2,0-0.4-0.2-0.4-0.4c0-0.2,0.2-0.4,0.4-0.4c0.2,0,0.4,0.2,0.4,0.4C62.5,27.8,62.4,28,62.1,28z"
				/>
			<path class="st0" d="M60.2,28c-0.2,0-0.4-0.2-0.4-0.4c0-0.2,0.2-0.4,0.4-0.4c0.2,0,0.4,0.2,0.4,0.4C60.6,27.8,60.4,28,60.2,28z"
				/>
			<path class="st0" d="M62.1,31.1c0.2,0,0.4,0.2,0.4,0.4c0,0.2-0.2,0.4-0.4,0.4c-0.2,0-0.4-0.2-0.4-0.4
				C61.8,31.2,61.9,31.1,62.1,31.1z"/>
			<path class="st0" d="M58.3,27.2c0.2,0,0.4,0.2,0.4,0.4c0,0.2-0.2,0.4-0.4,0.4c-0.2,0-0.4-0.2-0.4-0.4
				C57.9,27.4,58.1,27.2,58.3,27.2z"/>
			<path class="st0" d="M56.4,27.2c0.2,0,0.4,0.2,0.4,0.4c0,0.2-0.2,0.4-0.4,0.4c-0.2,0-0.4-0.2-0.4-0.4
				C56,27.4,56.2,27.2,56.4,27.2z"/>
			<path class="st0" d="M54.5,28c-0.2,0-0.4-0.2-0.4-0.4c0-0.2,0.2-0.4,0.4-0.4c0.2,0,0.4,0.2,0.4,0.4C54.9,27.8,54.7,28,54.5,28z"
				/>
			<path class="st0" d="M67.3,26.6c0,0.2-0.2,0.4-0.4,0.4c-0.2,0-0.4-0.2-0.4-0.4c0-0.2,0.2-0.4,0.4-0.4
				C67.1,26.3,67.3,26.4,67.3,26.6z"/>
			<path class="st0" d="M64.4,31.4c0,0.2-0.2,0.4-0.4,0.4c-0.2,0-0.4-0.2-0.4-0.4c0-0.2,0.2-0.4,0.4-0.4
				C64.3,31.1,64.4,31.2,64.4,31.4z"/>
			<path class="st0" d="M63.5,26.7c0,0.2-0.2,0.4-0.4,0.4c-0.2,0-0.4-0.2-0.4-0.4c0-0.2,0.2-0.4,0.4-0.4
				C63.3,26.3,63.5,26.4,63.5,26.7z"/>
			<path class="st0" d="M61.2,26.3c0.2,0,0.4,0.2,0.4,0.4c0,0.2-0.2,0.4-0.4,0.4c-0.2,0-0.4-0.2-0.4-0.4
				C60.8,26.4,61,26.3,61.2,26.3z"/>
			<path class="st0" d="M59.3,32c0.2,0,0.4,0.2,0.4,0.4c0,0.2-0.2,0.4-0.4,0.4c-0.2,0-0.4-0.2-0.4-0.4C58.9,32.2,59.1,32,59.3,32z"
				/>
			<path class="st0" d="M57.3,27c-0.2,0-0.4-0.2-0.4-0.4c0-0.2,0.2-0.4,0.4-0.4c0.2,0,0.4,0.2,0.4,0.4C57.7,26.9,57.6,27,57.3,27z"
				/>
			<path class="st0" d="M55.8,26.7c0,0.2-0.2,0.4-0.4,0.4c-0.2,0-0.4-0.2-0.4-0.4c0-0.2,0.2-0.4,0.4-0.4
				C55.7,26.3,55.8,26.4,55.8,26.7z"/>
			<path class="st0" d="M61.2,32.8c-0.2,0-0.4-0.2-0.4-0.4c0-0.2,0.2-0.4,0.4-0.4c0.2,0,0.4,0.2,0.4,0.4
				C61.6,32.6,61.4,32.8,61.2,32.8z"/>
			<path class="st0" d="M63.5,32.4c0,0.2-0.2,0.4-0.4,0.4c-0.2,0-0.4-0.2-0.4-0.4c0-0.2,0.2-0.4,0.4-0.4
				C63.3,32,63.5,32.2,63.5,32.4z"/>
			<path class="st0" d="M61.6,30.5c0,0.2-0.2,0.4-0.4,0.4c-0.2,0-0.4-0.2-0.4-0.4c0-0.2,0.2-0.4,0.4-0.4
				C61.4,30.1,61.6,30.3,61.6,30.5z"/>
			<path class="st0" d="M59.7,30.5c0,0.2-0.2,0.4-0.4,0.4c-0.2,0-0.4-0.2-0.4-0.4c0-0.2,0.2-0.4,0.4-0.4
				C59.5,30.1,59.7,30.3,59.7,30.5z"/>
			<path class="st0" d="M65,30.1c0.2,0,0.4,0.2,0.4,0.4c0,0.2-0.2,0.4-0.4,0.4c-0.2,0-0.4-0.2-0.4-0.4C64.6,30.3,64.8,30.1,65,30.1z
				"/>
			<path class="st0" d="M55.4,30.9c-0.2,0-0.4-0.2-0.4-0.4c0-0.2,0.2-0.4,0.4-0.4c0.2,0,0.4,0.2,0.4,0.4
				C55.8,30.7,55.7,30.9,55.4,30.9z"/>
			<path class="st0" d="M66,29.1c0.2,0,0.4,0.2,0.4,0.4c0,0.2-0.2,0.4-0.4,0.4c-0.2,0-0.4-0.2-0.4-0.4C65.6,29.3,65.8,29.1,66,29.1z
				"/>
			<path class="st0" d="M64.4,29.5c0,0.2-0.2,0.4-0.4,0.4c-0.2,0-0.4-0.2-0.4-0.4c0-0.2,0.2-0.4,0.4-0.4
				C64.3,29.1,64.4,29.3,64.4,29.5z"/>
			<path class="st0" d="M62.5,29.5c0,0.2-0.2,0.4-0.4,0.4c-0.2,0-0.4-0.2-0.4-0.4c0-0.2,0.2-0.4,0.4-0.4
				C62.4,29.1,62.5,29.3,62.5,29.5z"/>
			<path class="st0" d="M60.2,29.1c0.2,0,0.4,0.2,0.4,0.4c0,0.2-0.2,0.4-0.4,0.4c-0.2,0-0.4-0.2-0.4-0.4
				C59.8,29.3,60,29.1,60.2,29.1z"/>
			<path class="st0" d="M58.7,29.5c0,0.2-0.2,0.4-0.4,0.4c-0.2,0-0.4-0.2-0.4-0.4c0-0.2,0.2-0.4,0.4-0.4
				C58.5,29.1,58.7,29.3,58.7,29.5z"/>
			<path class="st0" d="M56.4,29.9c-0.2,0-0.4-0.2-0.4-0.4c0-0.2,0.2-0.4,0.4-0.4c0.2,0,0.4,0.2,0.4,0.4
				C56.8,29.8,56.6,29.9,56.4,29.9z"/>
			<path class="st0" d="M54.5,29.1c0.2,0,0.4,0.2,0.4,0.4c0,0.2-0.2,0.4-0.4,0.4c-0.2,0-0.4-0.2-0.4-0.4
				C54.1,29.3,54.3,29.1,54.5,29.1z"/>
			<path class="st0" d="M67.3,28.6c0,0.2-0.2,0.4-0.4,0.4c-0.2,0-0.4-0.2-0.4-0.4c0-0.2,0.2-0.4,0.4-0.4
				C67.2,28.2,67.3,28.4,67.3,28.6z"/>
			<path class="st0" d="M65,29c-0.2,0-0.4-0.2-0.4-0.4c0-0.2,0.2-0.4,0.4-0.4c0.2,0,0.4,0.2,0.4,0.4C65.4,28.8,65.2,29,65,29z"/>
			<path class="st0" d="M56.4,31.1c0.2,0,0.4,0.2,0.4,0.4c0,0.2-0.2,0.4-0.4,0.4c-0.2,0-0.4-0.2-0.4-0.4
				C56,31.2,56.2,31.1,56.4,31.1z"/>
			<path class="st0" d="M61.2,28.2c0.2,0,0.4,0.2,0.4,0.4c0,0.2-0.2,0.4-0.4,0.4c-0.2,0-0.4-0.2-0.4-0.4
				C60.8,28.4,61,28.2,61.2,28.2z"/>
			<path class="st0" d="M58.9,28.5c0-0.2,0.2-0.4,0.4-0.4c0.2,0,0.4,0.2,0.4,0.4c0,0.2-0.2,0.4-0.4,0.4C59,28.9,58.9,28.8,58.9,28.5
				z"/>
			<path class="st0" d="M58.7,31.4c0,0.2-0.2,0.4-0.4,0.4c-0.2,0-0.4-0.2-0.4-0.4c0-0.2,0.2-0.4,0.4-0.4
				C58.5,31.1,58.7,31.2,58.7,31.4z"/>
			<path class="st0" d="M55.4,28.2c0.2,0,0.4,0.2,0.4,0.4c0,0.2-0.2,0.4-0.4,0.4c-0.2,0-0.4-0.2-0.4-0.4
				C55,28.4,55.2,28.2,55.4,28.2z"/>
			<path class="st0" d="M64.4,23.8c0,0.2-0.2,0.4-0.4,0.4c-0.2,0-0.4-0.2-0.4-0.4c0-0.2,0.2-0.4,0.4-0.4
				C64.3,23.4,64.4,23.6,64.4,23.8z"/>
			<path class="st0" d="M60.2,23.4c0.2,0,0.4,0.2,0.4,0.4c0,0.2-0.2,0.4-0.4,0.4c-0.2,0-0.4-0.2-0.4-0.4
				C59.8,23.6,60,23.4,60.2,23.4z"/>
			<path class="st0" d="M54.5,23.4c0.2,0,0.4,0.2,0.4,0.4c0,0.2-0.2,0.4-0.4,0.4c-0.2,0-0.4-0.2-0.4-0.4
				C54.1,23.6,54.3,23.4,54.5,23.4z"/>
			<path class="st0" d="M65.4,22.8c0,0.2-0.2,0.4-0.4,0.4c-0.2,0-0.4-0.2-0.4-0.4c0-0.2,0.2-0.4,0.4-0.4
				C65.2,22.4,65.4,22.6,65.4,22.8z"/>
			<path class="st0" d="M63.5,22.8c0,0.2-0.2,0.4-0.4,0.4c-0.2,0-0.4-0.2-0.4-0.4c0-0.2,0.2-0.4,0.4-0.4
				C63.3,22.4,63.5,22.6,63.5,22.8z"/>
			<path class="st0" d="M61.6,22.8c0,0.2-0.2,0.4-0.4,0.4c-0.2,0-0.4-0.2-0.4-0.4c0-0.2,0.2-0.4,0.4-0.4
				C61.4,22.4,61.6,22.6,61.6,22.8z"/>
			<path class="st0" d="M59.7,22.8c0,0.2-0.2,0.4-0.4,0.4c-0.2,0-0.4-0.2-0.4-0.4c0-0.2,0.2-0.4,0.4-0.4
				C59.5,22.4,59.7,22.6,59.7,22.8z"/>
			<path class="st0" d="M57.3,23.2c-0.2,0-0.4-0.2-0.4-0.4c0-0.2,0.2-0.4,0.4-0.4c0.2,0,0.4,0.2,0.4,0.4
				C57.7,23.1,57.6,23.2,57.3,23.2z"/>
			<path class="st0" d="M55.4,23.2c-0.2,0-0.4-0.2-0.4-0.4c0-0.2,0.2-0.4,0.4-0.4c0.2,0,0.4,0.2,0.4,0.4
				C55.8,23,55.7,23.2,55.4,23.2z"/>
			<path class="st0" d="M64.4,21.9c0,0.2-0.2,0.4-0.4,0.4c-0.2,0-0.4-0.2-0.4-0.4c0-0.2,0.2-0.4,0.4-0.4
				C64.3,21.5,64.4,21.6,64.4,21.9z"/>
			<path class="st0" d="M60.2,22.3c-0.2,0-0.4-0.2-0.4-0.4c0-0.2,0.2-0.4,0.4-0.4c0.2,0,0.4,0.2,0.4,0.4
				C60.6,22.1,60.4,22.2,60.2,22.3z"/>
			<path class="st0" d="M58.7,21.9c0,0.2-0.2,0.4-0.4,0.4c-0.2,0-0.4-0.2-0.4-0.4c0-0.2,0.2-0.4,0.4-0.4
				C58.5,21.5,58.7,21.7,58.7,21.9z"/>
			<path class="st0" d="M56.4,21.5c0.2,0,0.4,0.2,0.4,0.4c0,0.2-0.2,0.4-0.4,0.4c-0.2,0-0.4-0.2-0.4-0.4
				C56,21.6,56.2,21.5,56.4,21.5z"/>
			<path class="st0" d="M62.7,20.9c0-0.2,0.2-0.4,0.4-0.4c0.2,0,0.4,0.2,0.3,0.4c0,0.2-0.2,0.4-0.4,0.4
				C62.9,21.3,62.7,21.1,62.7,20.9z"/>
			<path class="st0" d="M61.2,21.3c-0.2,0-0.4-0.2-0.4-0.4c0-0.2,0.2-0.4,0.4-0.4c0.2,0,0.4,0.2,0.4,0.4
				C61.6,21.1,61.4,21.3,61.2,21.3z"/>
			<path class="st0" d="M59.7,20.9c0,0.2-0.2,0.4-0.4,0.4c-0.2,0-0.4-0.2-0.4-0.4c0-0.2,0.2-0.4,0.4-0.4
				C59.5,20.5,59.6,20.7,59.7,20.9z"/>
			<path class="st0" d="M57.3,20.5c0.2,0,0.4,0.2,0.4,0.4c0,0.2-0.2,0.4-0.4,0.4c-0.2,0-0.4-0.2-0.4-0.4
				C57,20.7,57.1,20.5,57.3,20.5z"/>
			<path class="st0" d="M65.6,25.7c0-0.2,0.2-0.4,0.4-0.4c0.2,0,0.4,0.2,0.4,0.4c0,0.2-0.2,0.4-0.4,0.4
				C65.7,26.1,65.6,25.9,65.6,25.7z"/>
			<path class="st0" d="M62.5,25.7c0,0.2-0.2,0.4-0.4,0.4c-0.2,0-0.4-0.2-0.4-0.4c0-0.2,0.2-0.4,0.4-0.4
				C62.4,25.3,62.5,25.5,62.5,25.7z"/>
			<path class="st0" d="M60.6,25.7c0,0.2-0.2,0.4-0.4,0.4c-0.2,0-0.4-0.2-0.4-0.4c0-0.2,0.2-0.4,0.4-0.4
				C60.4,25.3,60.6,25.5,60.6,25.7z"/>
			<path class="st0" d="M66.4,23.8c0,0.2-0.2,0.4-0.4,0.4c-0.2,0-0.4-0.2-0.4-0.4c0-0.2,0.2-0.4,0.4-0.4
				C66.2,23.4,66.4,23.6,66.4,23.8z"/>
			<path class="st0" d="M58.3,25.3c0.2,0,0.4,0.2,0.4,0.4c0,0.2-0.2,0.4-0.4,0.4c-0.2,0-0.4-0.2-0.4-0.4
				C57.9,25.5,58.1,25.3,58.3,25.3z"/>
			<path class="st0" d="M56.8,25.7c0,0.2-0.2,0.4-0.4,0.4c-0.2,0-0.4-0.2-0.4-0.4c0-0.2,0.2-0.4,0.4-0.4
				C56.6,25.3,56.8,25.5,56.8,25.7z"/>
			<path class="st0" d="M54.9,25.7c0,0.2-0.2,0.4-0.4,0.4c-0.2,0-0.4-0.2-0.4-0.4c0-0.2,0.2-0.4,0.4-0.4
				C54.7,25.3,54.9,25.5,54.9,25.7z"/>
			<path class="st0" d="M67.3,24.7c0,0.2-0.2,0.4-0.4,0.4c-0.2,0-0.4-0.2-0.4-0.4c0-0.2,0.2-0.4,0.4-0.4
				C67.2,24.4,67.3,24.5,67.3,24.7z"/>
			<path class="st0" d="M63.1,24.4c0.2,0,0.4,0.2,0.4,0.4c0,0.2-0.2,0.4-0.4,0.4c-0.2,0-0.4-0.2-0.4-0.4
				C62.7,24.5,62.9,24.4,63.1,24.4z"/>
			<path class="st0" d="M61.6,24.7c0,0.2-0.2,0.4-0.4,0.4c-0.2,0-0.4-0.2-0.4-0.4c0-0.2,0.2-0.4,0.4-0.4
				C61.4,24.4,61.6,24.5,61.6,24.7z"/>
			<path class="st0" d="M55.4,24.4c0.2,0,0.4,0.2,0.4,0.4c0,0.2-0.2,0.4-0.4,0.4c-0.2,0-0.4-0.2-0.4-0.4
				C55,24.5,55.2,24.4,55.4,24.4z"/>
			<path class="st0" d="M57.7,24.7c0,0.2-0.2,0.4-0.4,0.4c-0.2,0-0.4-0.2-0.4-0.4c0-0.2,0.2-0.4,0.4-0.4
				C57.6,24.4,57.7,24.5,57.7,24.7z"/>
			<path class="st0" d="M59.3,24.4c0.2,0,0.4,0.2,0.4,0.4c0,0.2-0.2,0.4-0.4,0.4c-0.2,0-0.4-0.2-0.4-0.4
				C58.9,24.5,59.1,24.4,59.3,24.4z"/>
			<path class="st0" d="M62.5,21.9c0,0.2-0.2,0.4-0.4,0.4c-0.2,0-0.4-0.2-0.4-0.4c0-0.2,0.2-0.4,0.4-0.4
				C62.4,21.5,62.5,21.6,62.5,21.9z"/>
			<path class="st0" d="M66.4,27.6c0,0.2-0.2,0.4-0.4,0.4c-0.2,0-0.4-0.2-0.4-0.4c0-0.2,0.2-0.4,0.4-0.4
				C66.2,27.2,66.4,27.4,66.4,27.6z"/>
			<path class="st0" d="M56.4,24.2c-0.2,0-0.4-0.2-0.4-0.4c0-0.2,0.2-0.4,0.4-0.4c0.2,0,0.4,0.2,0.4,0.4
				C56.8,24,56.6,24.2,56.4,24.2z"/>
			<path class="st0" d="M58.3,24.2c-0.2,0-0.4-0.2-0.4-0.4c0-0.2,0.2-0.4,0.4-0.4c0.2,0,0.4,0.2,0.4,0.4
				C58.7,24,58.5,24.2,58.3,24.2z"/>
			<path class="st0" d="M62.5,23.8c0,0.2-0.2,0.4-0.4,0.4c-0.2,0-0.4-0.2-0.4-0.4c0-0.2,0.2-0.4,0.4-0.4
				C62.4,23.4,62.5,23.6,62.5,23.8z"/>
			<path class="st0" d="M67.9,26.1c-0.2,0-0.4-0.2-0.4-0.4c0-0.2,0.2-0.4,0.4-0.4c0.2,0,0.3,0.2,0.3,0.5
				C68.2,26,68.1,26.1,67.9,26.1z"/>
			<path class="st0" d="M67.9,28c-0.2,0-0.4-0.2-0.4-0.4c0-0.2,0.2-0.4,0.4-0.4c0.2,0,0.4,0.1,0.4,0.3C68.2,27.8,68.1,28,67.9,28z"
				/>
			<path class="st0" d="M60.2,19.6c0.2,0,0.3,0,0.4,0.2c0,0.2,0,0.4-0.2,0.5c-0.2,0.1-0.4,0-0.5-0.1c-0.1-0.1-0.1-0.3,0-0.5
				C60,19.7,60.1,19.7,60.2,19.6z"/>
			<path class="st0" d="M60.2,33.6c-0.1,0-0.1,0-0.2,0c-0.2,0-0.3-0.1-0.2-0.3c0-0.2,0.3-0.4,0.5-0.3c0.2,0,0.4,0.3,0.3,0.5
				c0,0.1-0.1,0.1-0.2,0.1C60.4,33.6,60.3,33.6,60.2,33.6C60.2,33.6,60.2,33.6,60.2,33.6z"/>
			<path class="st0" d="M66.3,22c-0.1,0.2-0.2,0.3-0.4,0.2c-0.2,0-0.3-0.1-0.3-0.2c-0.1-0.1,0-0.3,0.1-0.4c0.1-0.1,0.1-0.1,0.2,0
				C66,21.7,66.2,21.9,66.3,22z"/>
			<path class="st0" d="M61.8,19.8c0.2,0,0.4,0.1,0.6,0.1c0.1,0,0.1,0.1,0.1,0.2c0,0.1-0.1,0.2-0.3,0.3c-0.2,0-0.3,0-0.4-0.1
				C61.7,20.1,61.7,19.9,61.8,19.8z"/>
			<path class="st0" d="M65.8,31.8c-0.2-0.1-0.2-0.3-0.2-0.4c0-0.2,0.1-0.3,0.3-0.3c0.2,0,0.3,0,0.4,0.2
				C66.1,31.4,66,31.6,65.8,31.8z"/>
			<path class="st0" d="M62.5,33.4c-0.2,0-0.4,0.1-0.7,0.1c-0.1,0-0.1,0-0.1-0.1c0-0.2,0.1-0.4,0.3-0.4C62.3,33,62.5,33.1,62.5,33.4
				z"/>
			<path class="st0" d="M67.2,23.1c-0.2,0.2-0.5,0.2-0.6,0c-0.1-0.2-0.1-0.4,0.1-0.6C66.9,22.7,67.1,22.9,67.2,23.1z"/>
			<path class="st0" d="M66.7,30.8c-0.2-0.2-0.2-0.4-0.1-0.6c0.1-0.2,0.4-0.2,0.6,0C67,30.4,66.9,30.6,66.7,30.8z"/>
			<path class="st0" d="M58,20c0.2-0.1,0.5-0.1,0.7-0.2c0.1,0.3-0.1,0.4-0.3,0.5C58.2,20.4,58,20.2,58,20z"/>
			<path class="st0" d="M58.7,33.4c-0.2-0.1-0.5-0.1-0.7-0.2c0.1-0.2,0.2-0.3,0.4-0.3C58.6,33,58.7,33.2,58.7,33.4z"/>
			<path class="st0" d="M64.7,20.8c0.2,0.1,0.4,0.3,0.6,0.4c-0.1,0.2-0.3,0.2-0.5,0.1C64.7,21.1,64.6,20.9,64.7,20.8z"/>
			<path class="st0" d="M64.7,32.5c0-0.2,0-0.4,0.2-0.5c0.1-0.1,0.3-0.1,0.5,0.1C65.1,32.3,64.9,32.4,64.7,32.5z"/>
			<path class="st0" d="M52.7,26.1c0-0.2,0.1-0.4,0.1-0.7c0.1,0.1,0.2,0.2,0.2,0.4C52.9,25.9,52.8,26,52.7,26.1z"/>
			<path class="st0" d="M52.8,27.9c0-0.2-0.1-0.4-0.1-0.7c0.2,0,0.3,0.1,0.3,0.3C53,27.7,52.9,27.8,52.8,27.9z"/>
			<path class="st0" d="M54.4,22.2c0.1-0.1,0.3-0.3,0.4-0.4C54.9,22.1,54.7,22.3,54.4,22.2z"/>
			<path class="st0" d="M54.5,31.1c0.2,0,0.4,0.1,0.4,0.4C54.7,31.3,54.6,31.2,54.5,31.1z"/>
			<path class="st0" d="M67.7,24.2c-0.2-0.1-0.3-0.3-0.2-0.5C67.6,23.8,67.7,24,67.7,24.2L67.7,24.2z"/>
			<path class="st0" d="M67.7,29.2c-0.1,0.1-0.1,0.3-0.2,0.4C67.5,29.4,67.5,29.3,67.7,29.2z"/>
			<path class="st0" d="M55.8,21.1c-0.1,0.1-0.2,0.1-0.3,0.2c0,0,0,0,0,0C55.6,21.2,55.7,21.1,55.8,21.1
				C55.8,21.1,55.8,21.1,55.8,21.1z"/>
			<path class="st0" d="M53.7,23.1c0.1-0.1,0.1-0.2,0.2-0.3c0,0,0,0,0,0C53.9,23,53.8,23.1,53.7,23.1C53.7,23.2,53.7,23.2,53.7,23.1
				z"/>
			<path class="st0" d="M53.9,30.4c0,0-0.1-0.1-0.1-0.1c0,0,0,0,0,0C53.8,30.2,53.8,30.3,53.9,30.4L53.9,30.4z"/>
			<path class="st0" d="M55.6,32.1C55.7,32.1,55.7,32.1,55.6,32.1C55.7,32.1,55.7,32.1,55.6,32.1C55.7,32.1,55.6,32.1,55.6,32.1
				L55.6,32.1z"/>
			<path class="st0" d="M55.5,32.1C55.6,32.1,55.6,32.1,55.5,32.1L55.5,32.1C55.6,32.1,55.6,32.1,55.5,32.1L55.5,32.1z"/>
			<path class="st0" d="M53.9,30.4C53.9,30.4,53.9,30.4,53.9,30.4C53.9,30.4,53.9,30.4,53.9,30.4C53.9,30.4,53.9,30.4,53.9,30.4
				L53.9,30.4z"/>
			<polygon class="st0" points="55.5,32 55.6,32.1 55.5,32.1 			"/>
			<path class="st0" d="M67.7,24.2C67.7,24.2,67.7,24.2,67.7,24.2L67.7,24.2z"/>
		</g>
		<path class="st0" d="M30.7,52.7c0.2,0,0.4,0.2,0.4,0.4c0,0.2-0.2,0.4-0.4,0.4c-0.2,0-0.4-0.2-0.4-0.4
			C30.3,52.8,30.4,52.7,30.7,52.7z"/>
		<path class="st0" d="M28.7,53.5c-0.2,0-0.4-0.2-0.4-0.4c0-0.2,0.2-0.4,0.4-0.4c0.2,0,0.4,0.2,0.4,0.4
			C29.1,53.3,28.9,53.4,28.7,53.5z"/>
		<path class="st0" d="M27.2,53.1c0,0.2-0.2,0.4-0.4,0.4c-0.2,0-0.4-0.2-0.4-0.4c0-0.2,0.2-0.4,0.4-0.4C27,52.7,27.2,52.8,27.2,53.1
			z"/>
		<path class="st0" d="M25.3,53.1c0,0.2-0.2,0.4-0.4,0.4c-0.2,0-0.4-0.2-0.4-0.4c0-0.2,0.2-0.4,0.4-0.4
			C25.1,52.7,25.3,52.9,25.3,53.1z"/>
		<path class="st0" d="M26.2,61.7c0,0.2-0.2,0.4-0.4,0.4c-0.2,0-0.4-0.2-0.4-0.4c0-0.2,0.2-0.4,0.4-0.4
			C26.1,61.3,26.2,61.5,26.2,61.7z"/>
		<path class="st0" d="M31.6,52.5c-0.2,0-0.4-0.2-0.3-0.4c0-0.2,0.2-0.4,0.4-0.3c0.2,0,0.4,0.2,0.3,0.4C32,52.4,31.8,52.5,31.6,52.5
			z"/>
		<path class="st0" d="M29.7,51.7c0.2,0,0.4,0.2,0.4,0.4c0,0.2-0.2,0.4-0.4,0.4c-0.2,0-0.4-0.2-0.4-0.4
			C29.3,51.9,29.5,51.7,29.7,51.7z"/>
		<path class="st0" d="M28.2,52.1c0,0.2-0.2,0.4-0.4,0.4c-0.2,0-0.4-0.2-0.4-0.4c0-0.2,0.2-0.4,0.4-0.4C28,51.7,28.1,51.9,28.2,52.1
			z"/>
		<path class="st0" d="M25.8,52.5c-0.2,0-0.4-0.2-0.4-0.4c0-0.2,0.2-0.4,0.4-0.4c0.2,0,0.4,0.2,0.4,0.4C26.2,52.3,26,52.5,25.8,52.5
			z"/>
		<path class="st0" d="M32.6,50.8c0.2,0,0.4,0.2,0.4,0.4c0,0.2-0.2,0.4-0.4,0.4c-0.2,0-0.4-0.2-0.4-0.4
			C32.2,50.9,32.3,50.8,32.6,50.8z"/>
		<path class="st0" d="M30.6,51.5c-0.2,0-0.4-0.2-0.4-0.4c0-0.2,0.2-0.4,0.4-0.4c0.2,0,0.4,0.2,0.4,0.4C31,51.4,30.8,51.5,30.6,51.5
			z"/>
		<path class="st0" d="M28.7,51.5c-0.2,0-0.4-0.2-0.4-0.4c0-0.2,0.2-0.4,0.4-0.4c0.2,0,0.4,0.2,0.4,0.4
			C29.1,51.4,28.9,51.5,28.7,51.5z"/>
		<path class="st0" d="M26.8,50.8c0.2,0,0.4,0.2,0.4,0.4c0,0.2-0.2,0.4-0.4,0.4c-0.2,0-0.4-0.2-0.4-0.4
			C26.4,50.9,26.6,50.8,26.8,50.8z"/>
		<path class="st0" d="M33.9,50.2c0,0.2-0.2,0.4-0.4,0.4c-0.2,0-0.4-0.2-0.4-0.4c0-0.2,0.2-0.4,0.4-0.4C33.7,49.8,33.9,50,33.9,50.2
			z"/>
		<path class="st0" d="M31.6,49.8c0.2,0,0.4,0.2,0.4,0.4c0,0.2-0.2,0.4-0.4,0.4c-0.2,0-0.4-0.2-0.4-0.4C31.2,50,31.4,49.8,31.6,49.8
			z"/>
		<path class="st0" d="M30.1,50.2c0,0.2-0.2,0.4-0.4,0.4c-0.2,0-0.4-0.2-0.4-0.4c0-0.2,0.2-0.4,0.4-0.4C29.9,49.8,30.1,50,30.1,50.2
			z"/>
		<path class="st0" d="M27.8,50.6c-0.2,0-0.4-0.2-0.4-0.4c0-0.2,0.2-0.4,0.4-0.4c0.2,0,0.4,0.2,0.4,0.4C28.2,50.4,28,50.6,27.8,50.6
			z"/>
		<path class="st0" d="M34.5,48.8c0.2,0,0.4,0.2,0.4,0.4c0,0.2-0.2,0.4-0.4,0.4c-0.2,0-0.4-0.2-0.4-0.4C34.1,49,34.3,48.8,34.5,48.8
			z"/>
		<path class="st0" d="M32.9,49.2c0,0.2-0.2,0.4-0.4,0.4c-0.2,0-0.4-0.2-0.4-0.4c0-0.2,0.2-0.4,0.4-0.4C32.8,48.9,32.9,49,32.9,49.2
			z"/>
		<path class="st0" d="M31,49.2c0,0.2-0.2,0.4-0.4,0.4c-0.2,0-0.4-0.2-0.4-0.4c0-0.2,0.2-0.4,0.4-0.4C30.9,48.8,31,49,31,49.2z"/>
		<path class="st0" d="M42.5,101c0,0.2-0.2,0.4-0.4,0.4c-0.2,0-0.4-0.2-0.4-0.4c0-0.2,0.2-0.4,0.4-0.4
			C42.4,100.6,42.5,100.8,42.5,101z"/>
		<path class="st0" d="M28.2,57.9c0,0.2-0.2,0.4-0.4,0.4c-0.2,0-0.4-0.2-0.4-0.4c0-0.2,0.2-0.4,0.4-0.4C28,57.5,28.2,57.6,28.2,57.9
			z"/>
		<path class="st0" d="M25.8,58.2c-0.2,0-0.4-0.2-0.4-0.4c0-0.2,0.2-0.4,0.4-0.4c0.2,0,0.4,0.2,0.4,0.4
			C26.2,58.1,26.1,58.2,25.8,58.2z"/>
		<path class="st0" d="M23.9,58.2c-0.2,0-0.4-0.2-0.4-0.4c0-0.2,0.2-0.4,0.4-0.4c0.2,0,0.4,0.2,0.4,0.4
			C24.3,58.1,24.1,58.2,23.9,58.2z"/>
		<path class="st0" d="M29.1,56.9c0,0.2-0.2,0.4-0.4,0.4c-0.2,0-0.4-0.2-0.4-0.4c0-0.2,0.2-0.4,0.4-0.4
			C28.9,56.5,29.1,56.7,29.1,56.9z"/>
		<path class="st0" d="M26.8,56.5c0.2,0,0.4,0.2,0.4,0.4c0,0.2-0.2,0.4-0.4,0.4c-0.2,0-0.4-0.2-0.4-0.4
			C26.4,56.7,26.6,56.5,26.8,56.5z"/>
		<path class="st0" d="M24.9,56.5c0.2,0,0.4,0.2,0.4,0.4c0,0.2-0.2,0.4-0.4,0.4c-0.2,0-0.4-0.2-0.4-0.4
			C24.5,56.7,24.7,56.5,24.9,56.5z"/>
		<path class="st0" d="M24.9,59.2c-0.2,0-0.4-0.2-0.4-0.4c0-0.2,0.2-0.4,0.4-0.4c0.2,0,0.4,0.2,0.4,0.4C25.3,59,25.1,59.2,24.9,59.2
			z"/>
		<path class="st0" d="M27.2,58.8c0,0.2-0.2,0.4-0.4,0.4c-0.2,0-0.4-0.2-0.4-0.4c0-0.2,0.2-0.4,0.4-0.4C27,58.4,27.2,58.6,27.2,58.8
			z"/>
		<path class="st0" d="M30.1,55.9c0,0.2-0.2,0.4-0.4,0.4c-0.2,0-0.4-0.1-0.4-0.4c0-0.2,0.2-0.4,0.4-0.4
			C29.9,55.5,30.1,55.7,30.1,55.9z"/>
		<path class="st0" d="M27.8,56.3c-0.2,0-0.4-0.2-0.4-0.4c0-0.2,0.2-0.4,0.4-0.4c0.2,0,0.4,0.2,0.4,0.4C28.1,56.2,28,56.3,27.8,56.3
			z"/>
		<path class="st0" d="M25.9,55.6c0.2,0,0.4,0.2,0.4,0.4c0,0.2-0.2,0.4-0.4,0.4c-0.2,0-0.4-0.2-0.4-0.4
			C25.5,55.7,25.6,55.5,25.9,55.6z"/>
		<path class="st0" d="M24.3,55.9c0,0.2-0.2,0.4-0.4,0.4c-0.2,0-0.4-0.2-0.4-0.4c0-0.2,0.2-0.4,0.4-0.4
			C24.2,55.6,24.3,55.7,24.3,55.9z"/>
		<path class="st0" d="M26.2,59.8c0,0.2-0.2,0.4-0.4,0.4c-0.2,0-0.4-0.2-0.4-0.4c0-0.2,0.2-0.4,0.4-0.4
			C26.1,59.4,26.2,59.6,26.2,59.8z"/>
		<path class="st0" d="M29.1,55c0,0.2-0.2,0.4-0.4,0.4c-0.2,0-0.4-0.2-0.4-0.4c0-0.2,0.2-0.4,0.4-0.4C29,54.6,29.1,54.8,29.1,55z"/>
		<path class="st0" d="M26.8,55.4c-0.2,0-0.4-0.2-0.4-0.4c0-0.2,0.2-0.4,0.4-0.4c0.2,0,0.4,0.2,0.4,0.4C27.2,55.2,27,55.4,26.8,55.4
			z"/>
		<path class="st0" d="M25.3,55c0,0.2-0.2,0.4-0.4,0.4c-0.2,0-0.4-0.2-0.4-0.4c0-0.2,0.2-0.4,0.4-0.4C25.1,54.6,25.3,54.8,25.3,55z"
			/>
		<path class="st0" d="M24.9,60.3c0.2,0,0.4,0.2,0.4,0.4c0,0.2-0.2,0.4-0.4,0.4c-0.2,0-0.4-0.2-0.4-0.4
			C24.5,60.5,24.7,60.3,24.9,60.3z"/>
		<path class="st0" d="M27.2,60.7c0,0.2-0.2,0.4-0.4,0.4c-0.2,0-0.4-0.2-0.4-0.4c0-0.2,0.2-0.4,0.4-0.4C27,60.3,27.2,60.5,27.2,60.7
			z"/>
		<path class="st0" d="M29.7,53.6c0.2,0,0.4,0.2,0.4,0.4c0,0.2-0.2,0.4-0.4,0.4c-0.2,0-0.4-0.2-0.4-0.4
			C29.3,53.8,29.5,53.6,29.7,53.6z"/>
		<path class="st0" d="M27.8,53.6c0.2,0,0.4,0.2,0.4,0.4c0,0.2-0.2,0.4-0.4,0.4c-0.2,0-0.4-0.2-0.4-0.4
			C27.4,53.8,27.5,53.6,27.8,53.6z"/>
		<path class="st0" d="M25.8,53.6c0.2,0,0.4,0.2,0.4,0.4c0,0.2-0.2,0.4-0.4,0.4c-0.2,0-0.4-0.2-0.4-0.4
			C25.5,53.8,25.6,53.6,25.8,53.6z"/>
		<path class="st0" d="M22.4,42.5c0,0.2-0.2,0.4-0.4,0.4c-0.2,0-0.4-0.2-0.4-0.4c0-0.2,0.2-0.4,0.4-0.4
			C22.2,42.1,22.4,42.3,22.4,42.5z"/>
		<path class="st0" d="M20.1,42.1c0.2,0,0.4,0.2,0.4,0.4c0,0.2-0.2,0.4-0.4,0.4c-0.2,0-0.4-0.2-0.4-0.4
			C19.7,42.3,19.9,42.1,20.1,42.1z"/>
		<path class="st0" d="M46,104.4c0.2,0,0.4,0.2,0.4,0.4c0,0.2-0.2,0.4-0.4,0.4c-0.2,0-0.4-0.2-0.4-0.4
			C45.6,104.6,45.8,104.4,46,104.4z"/>
		<path class="st0" d="M20.5,48.3c0,0.2-0.2,0.4-0.4,0.4c-0.2,0-0.4-0.2-0.4-0.4c0-0.2,0.2-0.4,0.4-0.4
			C20.3,47.9,20.5,48.1,20.5,48.3z"/>
		<path class="st0" d="M25.3,41.6c0,0.2-0.2,0.4-0.4,0.4c-0.2,0-0.4-0.2-0.4-0.4c0-0.2,0.2-0.4,0.4-0.4
			C25.1,41.2,25.3,41.3,25.3,41.6z"/>
		<path class="st0" d="M23.4,41.6c0,0.2-0.2,0.4-0.4,0.4c-0.2,0-0.4-0.2-0.4-0.4c0-0.2,0.2-0.4,0.4-0.4
			C23.2,41.2,23.4,41.3,23.4,41.6z"/>
		<path class="st0" d="M19.5,47.3c0,0.2-0.2,0.4-0.4,0.4c-0.2,0-0.4-0.2-0.4-0.4c0-0.2,0.2-0.4,0.4-0.4
			C19.4,46.9,19.5,47.1,19.5,47.3z"/>
		<path class="st0" d="M19.1,45.8c-0.2,0-0.4-0.2-0.4-0.4c0-0.2,0.2-0.4,0.4-0.4c0.2,0,0.4,0.2,0.4,0.4
			C19.5,45.6,19.3,45.8,19.1,45.8z"/>
		<path class="st0" d="M24.3,42.5c0,0.2-0.2,0.4-0.4,0.4c-0.2,0-0.4-0.2-0.4-0.4c0-0.2,0.2-0.4,0.4-0.4
			C24.1,42.1,24.3,42.3,24.3,42.5z"/>
		<path class="st0" d="M19.1,43.9c-0.2,0-0.4-0.2-0.4-0.4c0-0.2,0.2-0.4,0.4-0.4c0.2,0,0.4,0.2,0.4,0.4
			C19.5,43.7,19.4,43.9,19.1,43.9z"/>
		<path class="st0" d="M21.1,43.1c0.2,0,0.4,0.2,0.4,0.4c0,0.2-0.2,0.4-0.4,0.4c-0.2,0-0.4-0.2-0.4-0.4
			C20.7,43.3,20.8,43.1,21.1,43.1z"/>
		<path class="st0" d="M23,47.7c-0.2,0-0.4-0.2-0.4-0.4c0-0.2,0.2-0.4,0.4-0.4c0.2,0,0.4,0.2,0.4,0.4C23.4,47.5,23.2,47.7,23,47.7z"
			/>
		<path class="st0" d="M21.1,45.8c-0.2,0-0.4-0.2-0.4-0.4c0-0.2,0.2-0.4,0.4-0.4c0.2,0,0.4,0.2,0.4,0.4
			C21.4,45.6,21.3,45.8,21.1,45.8z"/>
		<path class="st0" d="M23,45c0.2,0,0.4,0.2,0.4,0.4c0,0.2-0.2,0.4-0.4,0.4c-0.2,0-0.4-0.2-0.4-0.4C22.6,45.2,22.8,45,23,45z"/>
		<path class="st0" d="M23.4,43.5c0,0.2-0.2,0.4-0.4,0.4c-0.2,0-0.4-0.2-0.4-0.4c0-0.2,0.2-0.4,0.4-0.4
			C23.2,43.1,23.4,43.3,23.4,43.5z"/>
		<path class="st0" d="M22,46c0.2,0,0.4,0.2,0.4,0.4c0,0.2-0.2,0.4-0.4,0.4c-0.2,0-0.4-0.2-0.4-0.4C21.6,46.1,21.8,46,22,46z"/>
		<path class="st0" d="M20.1,46c0.2,0,0.4,0.2,0.4,0.4c0,0.2-0.2,0.4-0.4,0.4c-0.2,0-0.4-0.2-0.4-0.4C19.7,46.1,19.9,46,20.1,46z"/>
		<path class="st0" d="M21.4,47.3c0,0.2-0.2,0.4-0.4,0.4c-0.2,0-0.4-0.2-0.4-0.4c0-0.2,0.2-0.4,0.4-0.4
			C21.3,46.9,21.4,47.1,21.4,47.3z"/>
		<path class="st0" d="M22,44.8c-0.2,0-0.4-0.2-0.3-0.4c0-0.2,0.2-0.4,0.4-0.3c0.2,0,0.4,0.2,0.3,0.4C22.4,44.7,22.2,44.8,22,44.8z"
			/>
		<path class="st0" d="M20.5,44.5c0,0.2-0.2,0.4-0.4,0.4c-0.2,0-0.4-0.2-0.4-0.4c0-0.2,0.2-0.4,0.4-0.4
			C20.3,44.1,20.5,44.2,20.5,44.5z"/>
		<path class="st0" d="M67,107.1c-0.2,0-0.4-0.2-0.4-0.4c0-0.2,0.2-0.4,0.4-0.4c0.2,0,0.4,0.2,0.4,0.4
			C67.4,106.9,67.3,107.1,67,107.1z"/>
		<path class="st0" d="M59.8,106.7c0,0.2-0.2,0.4-0.4,0.4c-0.2,0-0.4-0.2-0.4-0.4c0-0.2,0.2-0.4,0.4-0.4
			C59.6,106.3,59.8,106.5,59.8,106.7z"/>
		<path class="st0" d="M93.3,59.8c0,0.2-0.2,0.4-0.4,0.4c-0.2,0-0.4-0.2-0.4-0.4c0-0.2,0.2-0.4,0.4-0.4
			C93.1,59.4,93.3,59.6,93.3,59.8z"/>
		<path class="st0" d="M91,60.2c-0.2,0-0.4-0.2-0.4-0.4c0-0.2,0.2-0.4,0.4-0.4c0.2,0,0.4,0.2,0.4,0.4C91.4,60,91.2,60.2,91,60.2z"/>
		<path class="st0" d="M90.4,55c0,0.2-0.2,0.4-0.4,0.4c-0.2,0-0.4-0.2-0.4-0.4c0-0.2,0.2-0.4,0.4-0.4C90.2,54.6,90.4,54.8,90.4,55z"
			/>
		<path class="st0" d="M92,54.6c0.2,0,0.4,0.2,0.4,0.4c0,0.2-0.2,0.4-0.4,0.4c-0.2,0-0.4-0.2-0.4-0.4C91.6,54.8,91.7,54.6,92,54.6z"
			/>
		<path class="st0" d="M94.3,55c0,0.2-0.2,0.4-0.4,0.4c-0.2,0-0.4-0.2-0.4-0.4c0-0.2,0.2-0.4,0.4-0.4C94.1,54.6,94.3,54.8,94.3,55z"
			/>
		<path class="st0" d="M95.2,59.8c0,0.2-0.2,0.4-0.4,0.4c-0.2,0-0.4-0.2-0.4-0.4c0-0.2,0.2-0.4,0.4-0.4
			C95.1,59.4,95.2,59.6,95.2,59.8z"/>
		<path class="st0" d="M96.7,60.2c-0.2,0-0.4-0.2-0.4-0.4c0-0.2,0.2-0.4,0.4-0.4c0.2,0,0.4,0.2,0.4,0.4C97.1,60,97,60.2,96.7,60.2z"
			/>
		<path class="st0" d="M99,59.8c0,0.2-0.2,0.4-0.4,0.4c-0.2,0-0.4-0.2-0.4-0.4c0-0.2,0.2-0.4,0.4-0.4C98.9,59.4,99.1,59.6,99,59.8z"
			/>
		<path class="st0" d="M101,59.8c0,0.2-0.2,0.4-0.4,0.4c-0.2,0-0.4-0.2-0.4-0.4c0-0.2,0.2-0.4,0.4-0.4C100.8,59.4,101,59.6,101,59.8
			z"/>
		<path class="st0" d="M102.5,59.4c0.2,0,0.4,0.2,0.4,0.4c0,0.2-0.2,0.4-0.4,0.4c-0.2,0-0.4-0.2-0.4-0.4
			C102.1,59.5,102.3,59.4,102.5,59.4z"/>
		<path class="st0" d="M97.1,54c0,0.2-0.2,0.4-0.4,0.4c-0.2,0-0.4-0.2-0.4-0.4c0-0.2,0.2-0.4,0.4-0.4C97,53.6,97.1,53.8,97.1,54z"/>
		<path class="st0" d="M94.8,53.6c0.2,0,0.4,0.2,0.4,0.4c0,0.2-0.2,0.4-0.4,0.4c-0.2,0-0.4-0.2-0.4-0.4
			C94.4,53.8,94.6,53.6,94.8,53.6z"/>
		<path class="st0" d="M92.9,54.4c-0.2,0-0.4-0.2-0.4-0.4c0-0.2,0.2-0.4,0.4-0.4c0.2,0,0.4,0.2,0.4,0.4
			C93.3,54.2,93.1,54.4,92.9,54.4z"/>
		<path class="st0" d="M91,53.6c0.2,0,0.4,0.2,0.4,0.4c0,0.2-0.2,0.4-0.4,0.4c-0.2,0-0.4-0.2-0.4-0.4C90.6,53.8,90.8,53.6,91,53.6z"
			/>
		<path class="st0" d="M68.4,105.8c0,0.2-0.2,0.4-0.4,0.4c-0.2,0-0.4-0.2-0.4-0.4c0-0.2,0.2-0.4,0.4-0.4
			C68.2,105.4,68.4,105.6,68.4,105.8z"/>
		<path class="st0" d="M66.1,106.1c-0.2,0-0.4-0.2-0.4-0.4c0-0.2,0.2-0.4,0.4-0.4c0.2,0,0.4,0.2,0.4,0.4
			C66.5,106,66.3,106.1,66.1,106.1z"/>
		<path class="st0" d="M90,60.3c0.2,0,0.4,0.2,0.4,0.4c0,0.2-0.2,0.4-0.4,0.4c-0.2,0-0.4-0.2-0.4-0.4C89.6,60.5,89.8,60.3,90,60.3z"
			/>
		<path class="st0" d="M92.3,60.7c0,0.2-0.2,0.4-0.4,0.4c-0.2,0-0.4-0.2-0.4-0.4c0-0.2,0.2-0.4,0.4-0.4
			C92.2,60.4,92.4,60.5,92.3,60.7z"/>
		<path class="st0" d="M93.9,60.3c0.2,0,0.4,0.2,0.4,0.4c0,0.2-0.2,0.4-0.4,0.4c-0.2,0-0.4-0.2-0.4-0.4
			C93.5,60.5,93.7,60.3,93.9,60.3z"/>
		<path class="st0" d="M96.2,60.7c0,0.2-0.2,0.4-0.4,0.4c-0.2,0-0.4-0.2-0.4-0.4c0-0.2,0.2-0.4,0.4-0.4C96,60.3,96.2,60.5,96.2,60.7
			z"/>
		<path class="st0" d="M111.1,52.7c0.2,0,0.4,0.2,0.4,0.4c0,0.2-0.2,0.4-0.4,0.4c-0.2,0-0.4-0.2-0.4-0.4
			C110.7,52.8,110.9,52.7,111.1,52.7z"/>
		<path class="st0" d="M94.8,57.5c0.2,0,0.4,0.2,0.4,0.4c0,0.2-0.2,0.4-0.4,0.4c-0.2,0-0.4-0.2-0.4-0.4
			C94.4,57.6,94.6,57.5,94.8,57.5z"/>
		<path class="st0" d="M92.9,57.5c0.2,0,0.4,0.2,0.4,0.4c0,0.2-0.2,0.4-0.4,0.4c-0.2,0-0.4-0.2-0.4-0.4
			C92.5,57.6,92.7,57.5,92.9,57.5z"/>
		<path class="st0" d="M91.4,57.8c0,0.2-0.2,0.4-0.4,0.4c-0.2,0-0.4-0.2-0.4-0.4c0-0.2,0.2-0.4,0.4-0.4
			C91.2,57.5,91.4,57.6,91.4,57.8z"/>
		<path class="st0" d="M97.1,57.8c0,0.2-0.2,0.4-0.4,0.4c-0.2,0-0.4-0.2-0.4-0.4c0-0.2,0.2-0.4,0.4-0.4
			C96.9,57.5,97.1,57.6,97.1,57.8z"/>
		<path class="st0" d="M67,108.2c0.2,0,0.4,0.2,0.4,0.4c0,0.2-0.2,0.4-0.4,0.4c-0.2,0-0.4-0.2-0.4-0.4
			C66.6,108.4,66.8,108.2,67,108.2z"/>
		<path class="st0" d="M68,107.3c0.2,0,0.4,0.2,0.4,0.4c0,0.2-0.2,0.4-0.4,0.4c-0.2,0-0.4-0.2-0.4-0.4
			C67.6,107.5,67.8,107.3,68,107.3z"/>
		<path class="st0" d="M66.5,107.7c0,0.2-0.2,0.4-0.4,0.4c-0.2,0-0.4-0.2-0.4-0.4c0-0.2,0.2-0.4,0.4-0.4
			C66.3,107.3,66.5,107.5,66.5,107.7z"/>
		<path class="st0" d="M99,57.8c0,0.2-0.2,0.4-0.4,0.4c-0.2,0-0.4-0.1-0.4-0.4c0-0.2,0.2-0.4,0.4-0.4C98.9,57.5,99,57.6,99,57.8z"/>
		<path class="st0" d="M100.2,57.9c0-0.2,0.1-0.4,0.4-0.4c0.2,0,0.4,0.2,0.4,0.4c0,0.2-0.2,0.4-0.4,0.4
			C100.4,58.2,100.2,58.1,100.2,57.9z"/>
		<path class="st0" d="M102.1,57.8c0-0.2,0.2-0.4,0.4-0.4c0.2,0,0.4,0.2,0.3,0.4c0,0.2-0.2,0.4-0.4,0.3
			C102.2,58.2,102.1,58,102.1,57.8z"/>
		<path class="st0" d="M99.6,57.3c-0.2,0-0.4-0.2-0.4-0.4c0-0.2,0.2-0.4,0.4-0.4c0.2,0,0.4,0.2,0.4,0.4
			C100,57.1,99.8,57.3,99.6,57.3z"/>
		<path class="st0" d="M98.1,56.9c0,0.2-0.2,0.4-0.4,0.4c-0.2,0-0.4-0.2-0.4-0.4c0-0.2,0.2-0.4,0.4-0.4
			C97.9,56.5,98.1,56.7,98.1,56.9z"/>
		<path class="st0" d="M96.2,56.9c0,0.2-0.2,0.4-0.4,0.4c-0.2,0-0.4-0.2-0.4-0.4c0-0.2,0.2-0.4,0.4-0.4C96,56.5,96.2,56.7,96.2,56.9
			z"/>
		<path class="st0" d="M94.3,56.9c0,0.2-0.2,0.4-0.4,0.4c-0.2,0-0.4-0.2-0.4-0.4c0-0.2,0.2-0.4,0.4-0.4
			C94.1,56.5,94.3,56.7,94.3,56.9z"/>
		<path class="st0" d="M92,56.5c0.2,0,0.4,0.2,0.4,0.4c0,0.2-0.2,0.4-0.4,0.4c-0.2,0-0.4-0.2-0.4-0.4C91.6,56.7,91.7,56.5,92,56.5z"
			/>
		<path class="st0" d="M90,57.3c-0.2,0-0.4-0.2-0.4-0.4c0-0.2,0.2-0.4,0.4-0.4c0.2,0,0.4,0.2,0.4,0.4C90.4,57.1,90.2,57.3,90,57.3z"
			/>
		<path class="st0" d="M69.3,106.7c0,0.2-0.2,0.4-0.4,0.4c-0.2,0-0.4-0.2-0.4-0.4c0-0.2,0.2-0.4,0.4-0.4
			C69.2,106.3,69.3,106.5,69.3,106.7z"/>
		<path class="st0" d="M90,58.4c0.2,0,0.4,0.2,0.4,0.4c0,0.2-0.2,0.4-0.4,0.4c-0.2,0-0.4-0.2-0.4-0.4C89.7,58.6,89.8,58.4,90,58.4z"
			/>
		<path class="st0" d="M92.3,58.8c0,0.2-0.2,0.4-0.4,0.4c-0.2,0-0.4-0.2-0.4-0.4c0-0.2,0.2-0.4,0.4-0.4
			C92.2,58.4,92.3,58.6,92.3,58.8z"/>
		<path class="st0" d="M93.9,59.2c-0.2,0-0.4-0.2-0.4-0.4c0-0.2,0.2-0.4,0.4-0.4c0.2,0,0.4,0.2,0.4,0.4C94.3,59,94.1,59.2,93.9,59.2
			z"/>
		<path class="st0" d="M96.2,58.8c0,0.2-0.2,0.4-0.4,0.4c-0.2,0-0.4-0.2-0.4-0.4c0-0.2,0.2-0.4,0.4-0.4C96,58.4,96.2,58.6,96.2,58.8
			z"/>
		<path class="st0" d="M99,55.9c0,0.2-0.2,0.4-0.4,0.4c-0.2,0-0.4-0.2-0.4-0.4c0-0.2,0.2-0.4,0.4-0.4C98.9,55.6,99,55.7,99,55.9z"/>
		<path class="st0" d="M96.7,56.3c-0.2,0-0.4-0.2-0.4-0.4c0-0.2,0.2-0.4,0.4-0.4c0.2,0,0.4,0.2,0.4,0.4C97.1,56.2,97,56.3,96.7,56.3
			z"/>
		<path class="st0" d="M95.2,55.9c0,0.2-0.2,0.4-0.4,0.4c-0.2,0-0.4-0.2-0.4-0.4c0-0.2,0.2-0.4,0.4-0.4C95,55.6,95.2,55.7,95.2,55.9
			z"/>
		<path class="st0" d="M92.9,56.3c-0.2,0-0.4-0.2-0.4-0.4c0-0.2,0.2-0.4,0.4-0.4c0.2,0,0.4,0.2,0.4,0.4
			C93.3,56.2,93.1,56.3,92.9,56.3z"/>
		<path class="st0" d="M91,55.6c0.2,0,0.4,0.2,0.4,0.4c0,0.2-0.2,0.4-0.4,0.4c-0.2,0-0.4-0.2-0.4-0.4C90.6,55.7,90.8,55.6,91,55.6z"
			/>
		<path class="st0" d="M98.1,58.8c0,0.2-0.2,0.4-0.4,0.4c-0.2,0-0.4-0.2-0.4-0.4c0-0.2,0.2-0.4,0.4-0.4
			C97.9,58.4,98.1,58.6,98.1,58.8z"/>
		<path class="st0" d="M99.6,58.4c0.2,0,0.4,0.2,0.4,0.4c0,0.2-0.2,0.4-0.4,0.4c-0.2,0-0.4-0.2-0.4-0.4
			C99.2,58.6,99.4,58.4,99.6,58.4z"/>
		<path class="st0" d="M103.8,58.8c0,0.2-0.2,0.4-0.4,0.4c-0.2,0-0.4-0.2-0.4-0.4c0-0.2,0.2-0.4,0.4-0.4
			C103.7,58.4,103.8,58.6,103.8,58.8z"/>
		<path class="st0" d="M110.7,55c0-0.2,0.2-0.4,0.4-0.4c0.2,0,0.4,0.2,0.3,0.4c0,0.2-0.2,0.4-0.4,0.3
			C110.9,55.3,110.7,55.2,110.7,55z"/>
		<path class="st0" d="M97.7,54.6c0.2,0,0.4,0.2,0.4,0.4c0,0.2-0.2,0.4-0.4,0.4c-0.2,0-0.4-0.2-0.4-0.4
			C97.3,54.8,97.5,54.6,97.7,54.6z"/>
		<path class="st0" d="M96.2,55c0,0.2-0.2,0.4-0.4,0.4c-0.2,0-0.4-0.2-0.4-0.4c0-0.2,0.2-0.4,0.4-0.4C96,54.6,96.2,54.8,96.2,55z"/>
		<path class="st0" d="M44.1,104.4c0.2,0,0.4,0.2,0.4,0.4c0,0.2-0.2,0.4-0.4,0.4c-0.2,0-0.4-0.2-0.4-0.4
			C43.7,104.6,43.8,104.4,44.1,104.4z"/>
		<path class="st0" d="M57.1,104.8c0-0.2,0.2-0.4,0.4-0.4c0.2,0,0.4,0.2,0.4,0.4c0,0.2-0.2,0.4-0.4,0.4
			C57.3,105.2,57.1,105,57.1,104.8z"/>
		<path class="st0" d="M96.7,50.6c-0.2,0-0.4-0.2-0.3-0.4c0-0.2,0.2-0.4,0.4-0.4c0.2,0,0.4,0.2,0.3,0.4
			C97.1,50.5,96.9,50.6,96.7,50.6z"/>
		<path class="st0" d="M103.5,64.2c0.2,0,0.4,0.2,0.4,0.4c0,0.2-0.2,0.4-0.4,0.4c-0.2,0-0.4-0.2-0.4-0.4
			C103.1,64.3,103.2,64.2,103.5,64.2z"/>
		<path class="st0" d="M99.6,64.9c-0.2,0-0.4-0.2-0.3-0.4c0-0.2,0.2-0.4,0.4-0.4c0.2,0,0.4,0.2,0.3,0.4C100,64.8,99.8,65,99.6,64.9z
			"/>
		<path class="st0" d="M97.7,64.9c-0.2,0-0.4-0.2-0.4-0.4c0-0.2,0.2-0.4,0.4-0.4c0.2,0,0.4,0.2,0.4,0.4
			C98.1,64.8,97.9,64.9,97.7,64.9z"/>
		<path class="st0" d="M95.8,64.9c-0.2,0-0.4-0.2-0.4-0.4c0-0.2,0.2-0.4,0.4-0.4c0.2,0,0.4,0.2,0.4,0.4C96.2,64.8,96,64.9,95.8,64.9
			z"/>
		<path class="st0" d="M94.3,64.6c0,0.2-0.2,0.4-0.4,0.4c-0.2,0-0.4-0.2-0.4-0.4c0-0.2,0.2-0.4,0.4-0.4
			C94.1,64.2,94.3,64.4,94.3,64.6z"/>
		<path class="st0" d="M102.5,64c-0.2,0-0.4-0.2-0.4-0.4c0-0.2,0.2-0.4,0.4-0.4c0.2,0,0.4,0.2,0.4,0.4C102.9,63.8,102.7,64,102.5,64
			z"/>
		<path class="st0" d="M100.6,64c-0.2,0-0.4-0.2-0.4-0.4c0-0.2,0.2-0.4,0.4-0.4c0.2,0,0.4,0.2,0.4,0.4C101,63.8,100.8,64,100.6,64z"
			/>
		<path class="st0" d="M99,63.6c0,0.2-0.2,0.4-0.4,0.4c-0.2,0-0.4-0.2-0.4-0.4c0-0.2,0.2-0.4,0.4-0.4C98.9,63.2,99,63.4,99,63.6z"/>
		<path class="st0" d="M115.3,47.3c0,0.2-0.2,0.4-0.4,0.4c-0.2,0-0.4-0.2-0.4-0.4c0-0.2,0.2-0.4,0.4-0.4
			C115.2,46.9,115.3,47.1,115.3,47.3z"/>
		<path class="st0" d="M59.4,105.2c-0.2,0-0.4-0.2-0.4-0.4c0-0.2,0.2-0.4,0.4-0.4c0.2,0,0.4,0.2,0.4,0.4
			C59.8,105,59.6,105.2,59.4,105.2z"/>
		<path class="st0" d="M111.1,47.7c-0.2,0-0.4-0.2-0.4-0.4c0-0.2,0.2-0.4,0.4-0.4c0.2,0,0.4,0.2,0.4,0.4
			C111.5,47.5,111.3,47.7,111.1,47.7z"/>
		<path class="st0" d="M97.1,63.6c0,0.2-0.2,0.4-0.4,0.4c-0.2,0-0.4-0.1-0.4-0.4c0-0.2,0.2-0.4,0.4-0.4
			C96.9,63.2,97.1,63.4,97.1,63.6z"/>
		<path class="st0" d="M94.3,51.2c0,0.2-0.2,0.4-0.4,0.4c-0.2,0-0.4-0.2-0.4-0.4c0-0.2,0.2-0.4,0.4-0.4C94.1,50.8,94.3,51,94.3,51.2
			z"/>
		<path class="st0" d="M95.8,50.8c0.2,0,0.4,0.2,0.4,0.4c0,0.2-0.2,0.4-0.4,0.4c-0.2,0-0.4-0.2-0.4-0.4
			C95.4,50.9,95.6,50.8,95.8,50.8z"/>
		<path class="st0" d="M47.3,103.8c0,0.2-0.2,0.4-0.4,0.4c-0.2,0-0.4-0.2-0.4-0.4c0-0.2,0.2-0.4,0.4-0.4
			C47.1,103.5,47.3,103.6,47.3,103.8z"/>
		<path class="st0" d="M45.4,103.8c0,0.2-0.2,0.4-0.4,0.4c-0.2,0-0.4-0.2-0.4-0.4c0-0.2,0.2-0.4,0.4-0.4
			C45.2,103.5,45.4,103.6,45.4,103.8z"/>
		<path class="st0" d="M76.6,102.5c0.2,0,0.4,0.2,0.4,0.4c0,0.2-0.2,0.4-0.4,0.4c-0.2,0-0.4-0.2-0.4-0.4
			C76.2,102.7,76.4,102.5,76.6,102.5z"/>
		<path class="st0" d="M75.1,102.9c0,0.2-0.2,0.4-0.4,0.4c-0.2,0-0.4-0.2-0.4-0.4c0-0.2,0.2-0.4,0.4-0.4
			C74.9,102.5,75.1,102.7,75.1,102.9z"/>
		<path class="st0" d="M76.1,101.9c0,0.2-0.2,0.4-0.4,0.4c-0.2,0-0.4-0.2-0.4-0.4c0-0.2,0.2-0.4,0.4-0.4
			C75.9,101.5,76.1,101.7,76.1,101.9z"/>
		<path class="st0" d="M58.4,104.2c-0.2,0-0.4-0.2-0.4-0.4c0-0.2,0.2-0.4,0.4-0.4c0.2,0,0.4,0.2,0.4,0.4
			C58.8,104.1,58.6,104.2,58.4,104.2z"/>
		<path class="st0" d="M43.5,100c0,0.2-0.2,0.4-0.4,0.4c-0.2,0-0.4-0.2-0.4-0.4c0-0.2,0.2-0.4,0.4-0.4C43.3,99.6,43.5,99.8,43.5,100
			z"/>
		<path class="st0" d="M60.7,103.8c0,0.2-0.2,0.4-0.4,0.4c-0.2,0-0.4-0.2-0.4-0.4c0-0.2,0.2-0.4,0.4-0.4
			C60.5,103.4,60.7,103.6,60.7,103.8z"/>
		<path class="st0" d="M73.7,104.2c-0.2,0-0.4-0.2-0.4-0.4c0-0.2,0.2-0.4,0.4-0.4c0.2,0,0.4,0.2,0.4,0.4
			C74.1,104.1,74,104.2,73.7,104.2z"/>
		<path class="st0" d="M75.7,104.2c-0.2,0-0.4-0.2-0.4-0.4c0-0.2,0.2-0.4,0.4-0.4c0.2,0,0.4,0.2,0.4,0.4
			C76,104.1,75.9,104.2,75.7,104.2z"/>
		<path class="st0" d="M111.5,49.2c0,0.2-0.2,0.4-0.4,0.4c-0.2,0-0.4-0.2-0.4-0.4c0-0.2,0.2-0.4,0.4-0.4
			C111.3,48.9,111.5,49,111.5,49.2z"/>
		<path class="st0" d="M100,66.5c0,0.2-0.2,0.4-0.4,0.4c-0.2,0-0.4-0.2-0.4-0.4c0-0.2,0.2-0.4,0.4-0.4C99.8,66.1,100,66.3,100,66.5z
			"/>
		<path class="st0" d="M96.2,66.5c0,0.2-0.2,0.4-0.4,0.4c-0.2,0-0.4-0.2-0.4-0.4c0-0.2,0.2-0.4,0.4-0.4C96,66.1,96.2,66.3,96.2,66.5
			z"/>
		<path class="st0" d="M100.6,65.1c0.2,0,0.4,0.2,0.4,0.4c0,0.2-0.2,0.4-0.4,0.4c-0.2,0-0.4-0.2-0.4-0.4
			C100.2,65.3,100.3,65.1,100.6,65.1z"/>
		<path class="st0" d="M99,65.5c0,0.2-0.2,0.4-0.4,0.4c-0.2,0-0.4-0.2-0.4-0.4c0-0.2,0.2-0.4,0.4-0.4C98.9,65.1,99.1,65.3,99,65.5z"
			/>
		<path class="st0" d="M96.8,65.1c0.2,0,0.4,0.2,0.4,0.4c0,0.2-0.2,0.4-0.4,0.4c-0.2,0-0.4-0.2-0.4-0.4
			C96.4,65.3,96.5,65.1,96.8,65.1z"/>
		<path class="st0" d="M95.2,65.5c0,0.2-0.2,0.4-0.4,0.4c-0.2,0-0.4-0.2-0.4-0.4c0-0.2,0.2-0.4,0.4-0.4C95,65.1,95.2,65.3,95.2,65.5
			z"/>
		<path class="st0" d="M92.3,62.7c0,0.2-0.2,0.4-0.4,0.4c-0.2,0-0.4-0.2-0.4-0.4c0-0.2,0.2-0.4,0.4-0.4
			C92.2,62.3,92.3,62.4,92.3,62.7z"/>
		<path class="st0" d="M102.5,61.3c0.2,0,0.4,0.2,0.4,0.4c0,0.2-0.2,0.4-0.4,0.4c-0.2,0-0.4-0.2-0.4-0.4
			C102.1,61.5,102.3,61.3,102.5,61.3z"/>
		<path class="st0" d="M100.5,62.1c-0.2,0-0.4-0.2-0.3-0.4c0-0.2,0.2-0.4,0.4-0.4c0.2,0,0.4,0.2,0.3,0.4
			C100.9,62,100.8,62.1,100.5,62.1z"/>
		<path class="st0" d="M98.7,62.1c-0.2,0-0.4-0.2-0.4-0.4c0-0.2,0.2-0.4,0.4-0.4c0.2,0,0.4,0.2,0.4,0.4C99,61.9,98.9,62.1,98.7,62.1
			z"/>
		<path class="st0" d="M96.8,61.3c0.2,0,0.4,0.2,0.4,0.4c0,0.2-0.2,0.4-0.4,0.4c-0.2,0-0.4-0.2-0.4-0.4
			C96.4,61.5,96.5,61.3,96.8,61.3z"/>
		<path class="st0" d="M94.8,62.1c-0.2,0-0.4-0.2-0.4-0.4c0-0.2,0.2-0.4,0.4-0.4c0.2,0,0.4,0.2,0.4,0.4C95.2,61.9,95,62.1,94.8,62.1
			z"/>
		<path class="st0" d="M93.3,61.7c0,0.2-0.2,0.4-0.4,0.4c-0.2,0-0.4-0.2-0.4-0.4c0-0.2,0.2-0.4,0.4-0.4
			C93.1,61.3,93.3,61.5,93.3,61.7z"/>
		<path class="st0" d="M91.4,61.7c0,0.2-0.2,0.4-0.4,0.4c-0.2,0-0.4-0.2-0.4-0.4c0-0.2,0.2-0.4,0.4-0.4
			C91.2,61.3,91.4,61.5,91.4,61.7z"/>
		<path class="st0" d="M45.4,105.8c0,0.2-0.2,0.4-0.4,0.4c-0.2,0-0.4-0.2-0.4-0.4c0-0.2,0.2-0.4,0.4-0.4
			C45.2,105.4,45.4,105.6,45.4,105.8z"/>
		<path class="st0" d="M58.8,105.8c0,0.2-0.2,0.4-0.4,0.4c-0.2,0-0.4-0.2-0.4-0.4c0-0.2,0.2-0.4,0.4-0.4
			C58.6,105.4,58.8,105.5,58.8,105.8z"/>
		<path class="st0" d="M60.7,105.8c0,0.2-0.2,0.4-0.4,0.4c-0.2,0-0.4-0.2-0.4-0.4c0-0.2,0.2-0.4,0.4-0.4
			C60.6,105.4,60.7,105.6,60.7,105.8z"/>
		<path class="st0" d="M100,60.7c0,0.2-0.2,0.4-0.4,0.4c-0.2,0-0.4-0.2-0.4-0.4c0-0.2,0.2-0.4,0.4-0.4C99.8,60.3,100,60.5,100,60.7z
			"/>
		<path class="st0" d="M92,52.7c0.2,0,0.4,0.2,0.4,0.4c0,0.2-0.2,0.4-0.4,0.4c-0.2,0-0.4-0.2-0.4-0.4C91.6,52.8,91.7,52.7,92,52.7z"
			/>
		<path class="st0" d="M94.3,53.1c0,0.2-0.2,0.4-0.4,0.4c-0.2,0-0.4-0.2-0.4-0.4c0-0.2,0.2-0.4,0.4-0.4
			C94.1,52.7,94.3,52.9,94.3,53.1z"/>
		<path class="st0" d="M95.8,53.5c-0.2,0-0.4-0.2-0.4-0.4c0-0.2,0.2-0.4,0.4-0.4c0.2,0,0.4,0.2,0.4,0.4C96.2,53.3,96,53.4,95.8,53.5
			z"/>
		<path class="st0" d="M98.1,53.1c0,0.2-0.2,0.4-0.4,0.4c-0.2,0-0.4-0.1-0.4-0.4c0-0.2,0.2-0.4,0.4-0.4
			C97.9,52.7,98.1,52.8,98.1,53.1z"/>
		<path class="st0" d="M97.7,61.1c-0.2,0-0.4-0.2-0.4-0.4c0-0.2,0.2-0.4,0.4-0.4c0.2,0,0.4,0.2,0.4,0.4C98.1,61,97.9,61.1,97.7,61.1
			z"/>
		<path class="st0" d="M98.1,51.1c0,0.2-0.2,0.4-0.4,0.4c-0.2,0-0.4-0.2-0.4-0.4c0-0.2,0.2-0.4,0.4-0.4
			C97.9,50.8,98.1,50.9,98.1,51.1z"/>
		<path class="st0" d="M95.2,63.6c0,0.2-0.2,0.4-0.4,0.4c-0.2,0-0.4-0.2-0.4-0.4c0-0.2,0.2-0.4,0.4-0.4
			C95.1,63.2,95.2,63.4,95.2,63.6z"/>
		<path class="st0" d="M111.5,51.1c0,0.2-0.2,0.4-0.4,0.4c-0.2,0-0.4-0.2-0.4-0.4c0-0.2,0.2-0.4,0.4-0.4
			C111.3,50.8,111.5,50.9,111.5,51.1z"/>
		<path class="st0" d="M92.9,64c-0.2,0-0.4-0.2-0.4-0.4c0-0.2,0.2-0.4,0.4-0.4c0.2,0,0.4,0.2,0.4,0.4C93.3,63.8,93.1,64,92.9,64z"/>
		<path class="st0" d="M103.8,62.7c0,0.2-0.2,0.4-0.4,0.4c-0.2,0-0.4-0.2-0.4-0.4c0-0.2,0.2-0.4,0.4-0.4
			C103.7,62.3,103.9,62.5,103.8,62.7z"/>
		<path class="st0" d="M100,62.7c0,0.2-0.2,0.4-0.4,0.4c-0.2,0-0.4-0.2-0.4-0.4c0-0.2,0.2-0.4,0.4-0.4C99.8,62.3,100,62.4,100,62.7z
			"/>
		<path class="st0" d="M98.1,62.6c0,0.2-0.2,0.4-0.4,0.4c-0.2,0-0.4-0.2-0.4-0.4c0-0.2,0.2-0.4,0.4-0.4
			C97.9,62.3,98.1,62.4,98.1,62.6z"/>
		<path class="st0" d="M96.2,62.6c0,0.2-0.2,0.4-0.4,0.4c-0.2,0-0.4-0.2-0.4-0.4c0-0.2,0.2-0.4,0.4-0.4C96,62.3,96.2,62.4,96.2,62.6
			z"/>
		<path class="st0" d="M60.9,104.8c0-0.2,0.2-0.4,0.4-0.4c0.2,0,0.4,0.2,0.4,0.4c0,0.2-0.2,0.4-0.4,0.4
			C61.1,105.2,60.9,105,60.9,104.8z"/>
		<path class="st0" d="M67.4,104.8c0,0.2-0.2,0.4-0.4,0.4c-0.2,0-0.4-0.2-0.4-0.4c0-0.2,0.2-0.4,0.4-0.4
			C67.2,104.4,67.4,104.6,67.4,104.8z"/>
		<path class="st0" d="M93.9,62.3c0.2,0,0.4,0.2,0.4,0.4c0,0.2-0.2,0.4-0.4,0.4c-0.2,0-0.4-0.2-0.4-0.4
			C93.5,62.4,93.6,62.3,93.9,62.3z"/>
		<path class="st0" d="M92.9,52.5c-0.2,0-0.4-0.2-0.4-0.4c0-0.2,0.2-0.4,0.4-0.4c0.2,0,0.4,0.2,0.4,0.4
			C93.3,52.3,93.1,52.5,92.9,52.5z"/>
		<path class="st0" d="M95.2,52.1c0,0.2-0.2,0.4-0.4,0.4c-0.2,0-0.4-0.2-0.4-0.4c0-0.2,0.2-0.4,0.4-0.4C95,51.7,95.2,51.9,95.2,52.1
			z"/>
		<path class="st0" d="M97.1,52.1c0,0.2-0.2,0.4-0.4,0.4c-0.2,0-0.4-0.2-0.4-0.4c0-0.2,0.2-0.4,0.4-0.4C97,51.7,97.1,51.9,97.1,52.1
			z"/>
		<path class="st0" d="M97.7,66.9c-0.2,0-0.4-0.2-0.4-0.4c0-0.2,0.2-0.4,0.4-0.4c0.2,0,0.4,0.2,0.4,0.4
			C98.1,66.7,97.9,66.9,97.7,66.9z"/>
		<path class="st0" d="M101.9,60.7c0,0.2-0.2,0.4-0.4,0.4c-0.2,0-0.4-0.2-0.4-0.4c0-0.2,0.2-0.4,0.4-0.4
			C101.8,60.4,101.9,60.5,101.9,60.7z"/>
		<path class="st0" d="M101.5,63c-0.2,0-0.4-0.2-0.4-0.4c0-0.2,0.2-0.4,0.4-0.4c0.2,0,0.4,0.2,0.4,0.4C101.9,62.9,101.7,63,101.5,63
			z"/>
		<path class="st0" d="M101.5,64.2c0.2,0,0.4,0.2,0.4,0.4c0,0.2-0.1,0.4-0.4,0.4c-0.2,0-0.4-0.2-0.4-0.4
			C101.1,64.3,101.3,64.2,101.5,64.2z"/>
		<path class="st0" d="M101.9,58.8c0,0.2-0.2,0.4-0.4,0.4c-0.2,0-0.4-0.2-0.4-0.4c0-0.2,0.2-0.4,0.4-0.4
			C101.8,58.4,101.9,58.6,101.9,58.8z"/>
		<path class="st0" d="M112.5,54c0,0.2-0.2,0.4-0.4,0.4c-0.2,0-0.4-0.2-0.4-0.4c0-0.2,0.2-0.4,0.4-0.4
			C112.3,53.6,112.5,53.8,112.5,54z"/>
		<path class="st0" d="M110.2,53.6c0.2,0,0.4,0.2,0.4,0.4c0,0.2-0.2,0.4-0.4,0.4c-0.2,0-0.4-0.2-0.4-0.4
			C109.8,53.8,109.9,53.6,110.2,53.6z"/>
		<path class="st0" d="M110.2,48.7c-0.2,0-0.4-0.2-0.4-0.4c0-0.2,0.2-0.4,0.4-0.4c0.2,0,0.4,0.2,0.4,0.4
			C110.5,48.5,110.4,48.7,110.2,48.7z"/>
		<path class="st0" d="M119.2,53.1c0,0.2-0.2,0.4-0.4,0.4c-0.2,0-0.4-0.2-0.4-0.4c0-0.2,0.2-0.4,0.4-0.4
			C119,52.7,119.2,52.9,119.2,53.1z"/>
		<path class="st0" d="M116.9,52.7c0.2,0,0.4,0.2,0.4,0.4c0,0.2-0.2,0.4-0.4,0.4c-0.2,0-0.4-0.2-0.4-0.4
			C116.5,52.8,116.7,52.7,116.9,52.7z"/>
		<path class="st0" d="M115.3,53.1c0,0.2-0.2,0.4-0.4,0.4c-0.2,0-0.4-0.2-0.4-0.4c0-0.2,0.2-0.4,0.4-0.4
			C115.2,52.7,115.3,52.8,115.3,53.1z"/>
		<path class="st0" d="M113,52.7c0.2,0,0.4,0.2,0.4,0.4c0,0.2-0.2,0.4-0.4,0.4c-0.2,0-0.4-0.2-0.4-0.4
			C112.6,52.8,112.8,52.7,113,52.7z"/>
		<path class="st0" d="M112.1,48.7c-0.2,0-0.4-0.2-0.4-0.4c0-0.2,0.2-0.4,0.4-0.4c0.2,0,0.4,0.2,0.4,0.4
			C112.5,48.5,112.3,48.7,112.1,48.7z"/>
		<path class="st0" d="M114,47.9c0.2,0,0.4,0.2,0.4,0.4c0,0.2-0.2,0.4-0.4,0.4c-0.2,0-0.4-0.2-0.4-0.4C113.6,48,113.8,47.9,114,47.9
			z"/>
		<path class="st0" d="M116.3,48.3c0,0.2-0.2,0.4-0.4,0.4c-0.2,0-0.4-0.2-0.4-0.4c0-0.2,0.2-0.4,0.4-0.4
			C116.1,47.9,116.3,48.1,116.3,48.3z"/>
		<path class="st0" d="M118.2,48.3c0,0.2-0.2,0.4-0.4,0.4c-0.2,0-0.4-0.2-0.4-0.4c0-0.2,0.2-0.4,0.4-0.4
			C118,47.9,118.2,48.1,118.2,48.3z"/>
		<path class="st0" d="M113,49.6c-0.2,0-0.4-0.2-0.4-0.4c0-0.2,0.2-0.4,0.4-0.4c0.2,0,0.4,0.2,0.4,0.4
			C113.4,49.4,113.3,49.6,113,49.6z"/>
		<path class="st0" d="M115.3,49.2c0,0.2-0.2,0.4-0.4,0.4c-0.2,0-0.4-0.2-0.4-0.4c0-0.2,0.2-0.4,0.4-0.4
			C115.2,48.9,115.3,49,115.3,49.2z"/>
		<path class="st0" d="M112.5,50.2c0,0.2-0.2,0.4-0.4,0.4c-0.2,0-0.4-0.2-0.4-0.4c0-0.2,0.2-0.4,0.4-0.4
			C112.3,49.8,112.5,50,112.5,50.2z"/>
		<path class="st0" d="M118.2,52.1c0,0.2-0.2,0.4-0.4,0.4c-0.2,0-0.4-0.2-0.4-0.4c0-0.2,0.2-0.4,0.4-0.4
			C118,51.7,118.2,51.9,118.2,52.1z"/>
		<path class="st0" d="M115.9,51.7c0.2,0,0.4,0.2,0.4,0.4c0,0.2-0.2,0.4-0.4,0.4c-0.2,0-0.4-0.2-0.4-0.4
			C115.5,51.9,115.7,51.7,115.9,51.7z"/>
		<path class="st0" d="M113.6,52.1c0-0.2,0.2-0.4,0.4-0.4c0.2,0,0.4,0.2,0.3,0.4c0,0.2-0.2,0.4-0.4,0.3
			C113.7,52.5,113.6,52.3,113.6,52.1z"/>
		<path class="st0" d="M112.1,52.5c-0.2,0-0.4-0.2-0.4-0.4c0-0.2,0.2-0.4,0.4-0.4c0.2,0,0.4,0.2,0.4,0.4
			C112.5,52.3,112.3,52.5,112.1,52.5z"/>
		<path class="st0" d="M116.9,49.6c-0.2,0-0.4-0.2-0.4-0.4c0-0.2,0.2-0.4,0.4-0.4c0.2,0,0.4,0.2,0.4,0.4
			C117.2,49.5,117.1,49.6,116.9,49.6z"/>
		<path class="st0" d="M110.5,52.1c0,0.2-0.2,0.4-0.4,0.4c-0.2,0-0.4-0.2-0.4-0.4c0-0.2,0.2-0.4,0.4-0.4
			C110.4,51.7,110.5,51.9,110.5,52.1z"/>
		<path class="st0" d="M110.5,50.2c0,0.2-0.2,0.4-0.4,0.4c-0.2,0-0.4-0.2-0.4-0.4c0-0.2,0.2-0.4,0.4-0.4
			C110.4,49.8,110.5,50,110.5,50.2z"/>
		<path class="st0" d="M119.2,49.2c0,0.2-0.2,0.4-0.4,0.4c-0.2,0-0.4-0.2-0.4-0.4c0-0.2,0.2-0.4,0.4-0.4
			C119,48.8,119.2,49,119.2,49.2z"/>
		<path class="st0" d="M114.9,51.5c-0.2,0-0.4-0.2-0.4-0.4c0-0.2,0.2-0.4,0.4-0.4c0.2,0,0.4,0.2,0.4,0.4
			C115.3,51.4,115.2,51.5,114.9,51.5z"/>
		<path class="st0" d="M119.2,51.1c0,0.2-0.2,0.4-0.4,0.4c-0.2,0-0.4-0.2-0.4-0.4c0-0.2,0.2-0.4,0.4-0.4
			C119,50.8,119.2,50.9,119.2,51.1z"/>
		<path class="st0" d="M116.9,51.5c-0.2,0-0.4-0.2-0.4-0.4c0-0.2,0.2-0.4,0.4-0.4c0.2,0,0.4,0.2,0.4,0.4
			C117.2,51.4,117.1,51.5,116.9,51.5z"/>
		<path class="st0" d="M114.4,50.2c0,0.2-0.2,0.4-0.4,0.4c-0.2,0-0.4-0.2-0.4-0.4c0-0.2,0.2-0.4,0.4-0.4
			C114.2,49.8,114.4,50,114.4,50.2z"/>
		<path class="st0" d="M114.4,46.4c0,0.2-0.2,0.4-0.4,0.4c-0.2,0-0.4-0.2-0.4-0.4c0-0.2,0.2-0.4,0.4-0.4
			C114.2,46,114.4,46.2,114.4,46.4z"/>
		<path class="st0" d="M116.3,55.9c0,0.2-0.2,0.4-0.4,0.4c-0.2,0-0.4-0.2-0.4-0.4c0-0.2,0.2-0.4,0.4-0.4
			C116.1,55.6,116.3,55.7,116.3,55.9z"/>
		<path class="st0" d="M114.4,55.9c0,0.2-0.2,0.4-0.4,0.4c-0.2,0-0.4-0.2-0.4-0.4c0-0.2,0.2-0.4,0.4-0.4
			C114.2,55.6,114.4,55.7,114.4,55.9z"/>
		<path class="st0" d="M115.5,50.2c0-0.2,0.2-0.4,0.4-0.4c0.2,0,0.4,0.2,0.3,0.4c0,0.2-0.2,0.4-0.4,0.3
			C115.7,50.6,115.5,50.4,115.5,50.2z"/>
		<path class="st0" d="M117.2,55c0,0.2-0.2,0.4-0.4,0.4c-0.2,0-0.4-0.2-0.4-0.4c0-0.2,0.2-0.4,0.4-0.4
			C117.1,54.6,117.2,54.8,117.2,55z"/>
		<path class="st0" d="M117.8,49.8c0.2,0,0.4,0.2,0.4,0.4c0,0.2-0.2,0.4-0.4,0.4c-0.2,0-0.4-0.2-0.4-0.4
			C117.4,50,117.6,49.8,117.8,49.8z"/>
		<path class="st0" d="M115.3,55c0,0.2-0.2,0.4-0.4,0.4c-0.2,0-0.4-0.2-0.4-0.4c0-0.2,0.2-0.4,0.4-0.4
			C115.2,54.6,115.3,54.8,115.3,55z"/>
		<path class="st0" d="M116.3,46.4c0,0.2-0.2,0.4-0.4,0.4c-0.2,0-0.4-0.2-0.4-0.4c0-0.2,0.2-0.4,0.4-0.4
			C116.1,46,116.3,46.2,116.3,46.4z"/>
		<path class="st0" d="M113.4,55c0,0.2-0.2,0.4-0.4,0.4c-0.2,0-0.4-0.2-0.4-0.4c0-0.2,0.2-0.4,0.4-0.4
			C113.2,54.6,113.4,54.8,113.4,55z"/>
		<path class="st0" d="M113,46.9c0.2,0,0.4,0.2,0.4,0.4c0,0.2-0.2,0.4-0.4,0.4c-0.2,0-0.4-0.2-0.4-0.4
			C112.6,47.1,112.8,46.9,113,46.9z"/>
		<path class="st0" d="M113,51.5c-0.2,0-0.4-0.2-0.4-0.4c0-0.2,0.2-0.4,0.4-0.4c0.2,0,0.4,0.2,0.4,0.4
			C113.4,51.4,113.2,51.5,113,51.5z"/>
		<path class="st0" d="M116.9,46.9c0.2,0,0.4,0.2,0.4,0.4c0,0.2-0.2,0.4-0.4,0.4c-0.2,0-0.4-0.2-0.4-0.4
			C116.5,47.1,116.6,46.9,116.9,46.9z"/>
		<path class="st0" d="M118.2,54c0,0.2-0.2,0.4-0.4,0.4c-0.2,0-0.4-0.2-0.4-0.4c0-0.2,0.2-0.4,0.4-0.4C118,53.6,118.2,53.8,118.2,54
			z"/>
		<path class="st0" d="M115.9,53.6c0.2,0,0.4,0.2,0.4,0.4c0,0.2-0.2,0.4-0.4,0.4c-0.2,0-0.4-0.2-0.4-0.4
			C115.5,53.8,115.7,53.6,115.9,53.6z"/>
		<path class="st0" d="M114,54.4c-0.2,0-0.4-0.2-0.4-0.4c0-0.2,0.2-0.4,0.4-0.4c0.2,0,0.4,0.2,0.4,0.4
			C114.4,54.2,114.2,54.4,114,54.4z"/>
		<path class="st0" d="M98.7,53.6c0.2,0,0.4,0.3,0.4,0.5c0,0.2-0.2,0.3-0.4,0.3c-0.2,0-0.4-0.2-0.4-0.4
			C98.3,53.8,98.4,53.6,98.7,53.6z"/>
		<path class="st0" d="M108.9,51.1c0-0.3,0.1-0.4,0.3-0.4c0.2,0,0.4,0.2,0.4,0.4c0,0.2-0.2,0.4-0.4,0.4
			C109,51.5,108.9,51.4,108.9,51.1z"/>
		<path class="st0" d="M112.5,55.9c0,0.2-0.2,0.4-0.3,0.4c-0.2,0-0.5-0.2-0.5-0.4c0-0.2,0.2-0.4,0.4-0.4
			C112.3,55.6,112.5,55.7,112.5,55.9z"/>
		<path class="st0" d="M21.4,41.6c0,0.2-0.2,0.4-0.4,0.4c-0.2,0-0.4-0.2-0.4-0.4c0-0.1,0.3-0.4,0.5-0.4
			C21.3,41.2,21.5,41.4,21.4,41.6z"/>
		<path class="st0" d="M68.9,105.2c-0.1,0-0.2-0.1-0.3-0.2c-0.1-0.2,0-0.3,0.1-0.4c0.1-0.1,0.2-0.2,0.3-0.1c0.1,0,0.1,0.1,0.2,0.1
			c0.1,0.1,0.2,0.2,0.2,0.3C69.3,105.1,69.1,105.2,68.9,105.2z"/>
		<path class="st0" d="M103.8,60.7c0,0.3-0.1,0.4-0.3,0.4c-0.2,0-0.4-0.2-0.4-0.4c0-0.2,0.2-0.4,0.4-0.4
			C103.7,60.3,103.8,60.4,103.8,60.7z"/>
		<path class="st0" d="M112.5,46.4c0,0.2-0.2,0.4-0.4,0.4c-0.2,0-0.4-0.2-0.4-0.4c0-0.1,0.3-0.4,0.5-0.4
			C112.3,46,112.5,46.2,112.5,46.4z"/>
		<path class="st0" d="M74.7,104.4c0.2,0,0.3,0.1,0.3,0.2c0.1,0.1,0.1,0.3,0,0.4c0,0.1-0.1,0.1-0.2,0.1c-0.1,0-0.1,0-0.2-0.1
			c-0.3-0.1-0.3-0.1-0.3-0.3C74.4,104.5,74.5,104.4,74.7,104.4z"/>
		<path class="st0" d="M94.8,50.6c-0.2,0-0.3-0.1-0.4-0.3c0,0,0-0.1,0-0.2c0-0.1,0.4-0.3,0.6-0.3c0.1,0,0.2,0.2,0.2,0.4
			C95.2,50.4,95,50.6,94.8,50.6z"/>
		<path class="st0" d="M68.8,109.1c-0.1-0.1-0.1-0.2-0.2-0.2c-0.1-0.2,0-0.4,0.1-0.5c0.2-0.1,0.4-0.1,0.5,0.1c0.1,0.1,0.1,0.3,0,0.4
			C69.1,108.9,69,108.9,68.8,109.1z"/>
		<path class="st0" d="M92.3,64.6c0,0.2-0.1,0.3-0.2,0.4c-0.1,0-0.1,0-0.2,0c-0.1-0.1-0.2-0.2-0.3-0.3c0,0,0-0.1,0-0.2
			c0.1-0.2,0.3-0.3,0.4-0.2C92.2,64.2,92.3,64.4,92.3,64.6z"/>
		<path class="st0" d="M31,54.9c-0.1,0.2-0.2,0.3-0.3,0.4c-0.1,0.1-0.2,0.2-0.3,0c-0.2-0.1-0.2-0.4-0.1-0.5c0.1-0.2,0.4-0.2,0.5-0.1
			C30.9,54.7,31,54.8,31,54.9z"/>
		<path class="st0" d="M102.4,65.9c-0.3-0.2-0.3-0.3-0.3-0.5c0.1-0.2,0.2-0.3,0.4-0.3c0.2,0,0.3,0.1,0.4,0.4
			C102.7,65.7,102.6,65.8,102.4,65.9z"/>
		<path class="st0" d="M91.1,64c-0.1-0.2-0.2-0.3-0.3-0.4c-0.1-0.1-0.1-0.2,0.1-0.3c0.2-0.1,0.4-0.1,0.5,0c0.1,0.1,0.2,0.4,0,0.5
			C91.2,63.9,91.2,63.9,91.1,64z"/>
		<path class="st0" d="M18,46.7c0-0.2,0-0.5-0.1-0.7c0.3-0.1,0.4-0.1,0.5,0c0.1,0.1,0.1,0.3,0,0.4C18.4,46.7,18.3,46.7,18,46.7z"/>
		<path class="st0" d="M70.2,106c-0.3,0.2-0.6,0.1-0.7-0.2c-0.1-0.2,0-0.4,0.4-0.5C70,105.6,70.1,105.8,70.2,106z"/>
		<path class="st0" d="M57.1,106.6c0.2-0.3,0.4-0.3,0.6-0.2c0.2,0.1,0.3,0.3,0.2,0.5c-0.1,0.2-0.2,0.2-0.3,0.1
			C57.4,106.8,57.2,106.7,57.1,106.6z"/>
		<path class="st0" d="M70.2,107.4c-0.1,0.2-0.2,0.4-0.3,0.7c-0.2,0-0.3-0.1-0.4-0.3c0-0.2,0-0.3,0.2-0.4
			C69.8,107.3,70,107.3,70.2,107.4z"/>
		<path class="st0" d="M119.9,51.8c0,0.2-0.1,0.5-0.1,0.7c-0.2,0.1-0.3,0-0.4-0.2c-0.1-0.1-0.1-0.3,0-0.4
			C119.5,51.7,119.7,51.7,119.9,51.8z"/>
		<path class="st0" d="M88.9,58.2c0-0.2,0-0.5,0-0.7c0.2-0.1,0.3,0,0.4,0.1c0.1,0.1,0.1,0.3,0,0.4C89.3,58.2,89.2,58.3,88.9,58.2z"
			/>
		<path class="st0" d="M119.9,50.5c-0.4,0-0.5-0.1-0.6-0.3c0-0.2,0.1-0.4,0.4-0.4C119.8,50,119.9,50.3,119.9,50.5z"/>
		<path class="st0" d="M28,59.5c-0.1,0.2-0.2,0.4-0.4,0.6c-0.2-0.1-0.3-0.2-0.3-0.4c0-0.1,0-0.3,0.2-0.3
			C27.7,59.4,27.9,59.4,28,59.5z"/>
		<path class="st0" d="M92.5,65.4c0.2-0.3,0.4-0.4,0.6-0.2c0.2,0.1,0.2,0.4,0,0.6C93,65.7,92.8,65.6,92.5,65.4z"/>
		<path class="st0" d="M104.3,63.2c0.1,0.2,0.2,0.5,0.3,0.7c-0.3,0.1-0.5,0.1-0.6-0.1C104,63.6,104,63.4,104.3,63.2z"/>
		<path class="st0" d="M59,102.9c0.3,0,0.5,0,0.8-0.1c0,0.3-0.1,0.4-0.3,0.5C59.2,103.3,59.1,103.2,59,102.9z"/>
		<path class="st0" d="M44.2,107.1c-0.2-0.2-0.3-0.4-0.5-0.6c0.3-0.2,0.4-0.2,0.6,0C44.5,106.6,44.5,106.8,44.2,107.1z"/>
		<path class="st0" d="M31.4,54.4c-0.2-0.3-0.2-0.4-0.1-0.6c0.1-0.2,0.3-0.2,0.6,0C31.7,54,31.6,54.1,31.4,54.4z"/>
		<path class="st0" d="M46.3,102.8c0,0.3-0.1,0.4-0.3,0.4c-0.2,0-0.3-0.1-0.4-0.4C45.8,102.8,46.1,102.8,46.3,102.8z"/>
		<path class="st0" d="M24.1,44.1c-0.1,0.2-0.2,0.5-0.3,0.7c-0.3-0.1-0.3-0.3-0.3-0.5C23.6,44.1,23.8,44,24.1,44.1z"/>
		<path class="st0" d="M101.2,56.7c0.2,0.1,0.4,0.3,0.6,0.4c-0.1,0.2-0.3,0.3-0.5,0.2C101.2,57.1,101.1,57,101.2,56.7z"/>
		<path class="st0" d="M89.1,60.1c0-0.2-0.1-0.5-0.1-0.7c0.3,0,0.4,0,0.4,0.2C89.5,59.9,89.4,60,89.1,60.1z"/>
		<path class="st0" d="M23.8,59.4c0.3,0,0.4,0,0.5,0.2c0.1,0.2,0,0.3-0.2,0.5C24,60,24,60,24,59.9C23.9,59.8,23.9,59.6,23.8,59.4z"
			/>
		<path class="st0" d="M76.9,104.6c-0.2,0.1-0.4,0.3-0.6,0.4c-0.1-0.2-0.1-0.4,0-0.5C76.5,104.4,76.7,104.4,76.9,104.6z"/>
		<path class="st0" d="M28.4,49.4c0.2-0.1,0.4-0.2,0.7-0.3c0.1,0.2,0,0.4-0.1,0.5C28.7,49.7,28.6,49.6,28.4,49.4z"/>
		<path class="st0" d="M99.8,55.3c-0.2,0.1-0.4,0.1-0.5-0.1c-0.1-0.2-0.1-0.3,0.1-0.5C99.5,54.9,99.7,55.1,99.8,55.3z"/>
		<path class="st0" d="M18.1,44.8c0.1-0.2,0.1-0.5,0.2-0.7c0.2,0.1,0.3,0.3,0.3,0.4C18.5,44.7,18.4,44.8,18.1,44.8z"/>
		<path class="st0" d="M41,101.6c0.2-0.1,0.4,0,0.5,0.2c0.1,0.2,0.1,0.3-0.1,0.5C41.2,102,41.1,101.8,41,101.6z"/>
		<path class="st0" d="M24.1,53.7c0.2,0.2,0.3,0.3,0.2,0.5c-0.1,0.2-0.2,0.2-0.5,0.2C23.9,54.1,24,53.9,24.1,53.7z"/>
		<path class="st0" d="M109.3,53.4c-0.1-0.2-0.2-0.5-0.2-0.7c0.2,0,0.4,0,0.5,0.2C109.6,53.1,109.6,53.2,109.3,53.4z"/>
		<path class="st0" d="M65.2,107.1c0-0.2,0-0.5,0-0.7c0.2,0,0.3,0.1,0.3,0.3C65.5,106.9,65.4,107,65.2,107.1z"/>
		<path class="st0" d="M109.4,48.9c0.2,0.2,0.3,0.4,0.2,0.5c-0.1,0.2-0.2,0.2-0.4,0.2C109.2,49.4,109.3,49.1,109.4,48.9z"/>
		<path class="st0" d="M90.3,63c-0.1-0.2-0.3-0.4-0.4-0.6c0.2-0.1,0.4,0,0.4,0.1C90.5,62.6,90.4,62.8,90.3,63z"/>
		<path class="st0" d="M41,100.4c0.1-0.2,0.2-0.4,0.4-0.6c0.1,0.2,0.1,0.3,0,0.4C41.4,100.4,41.3,100.4,41,100.4z"/>
		<path class="st0" d="M18.9,48.9c0.3-0.1,0.4-0.1,0.5,0.1c0.1,0.2,0,0.3-0.2,0.3C19.2,49.2,19.1,49.1,18.9,48.9z"/>
		<path class="st0" d="M74.1,101.8c0.1,0.4-0.1,0.6-0.5,0.5C73.7,102,73.9,101.9,74.1,101.8z"/>
		<path class="st0" d="M114.6,56.8c0-0.2,0.2-0.3,0.3-0.3c0.2,0,0.3,0.1,0.4,0.3C115.1,56.8,114.8,56.8,114.6,56.8z"/>
		<path class="st0" d="M61.5,106.4c-0.2,0.2-0.3,0.4-0.5,0.6c-0.1-0.1-0.1-0.3,0-0.4C61.1,106.3,61.2,106.3,61.5,106.4z"/>
		<path class="st0" d="M114.6,45.5c0.3,0,0.5,0,0.7,0.1c-0.1,0.2-0.2,0.2-0.3,0.2C114.8,45.8,114.6,45.7,114.6,45.5z"/>
		<path class="st0" d="M32.2,53.3c-0.2-0.4,0-0.6,0.5-0.6C32.5,52.9,32.4,53.1,32.2,53.3z"/>
		<path class="st0" d="M57.2,103.1c0.2-0.2,0.4-0.2,0.6-0.2C57.7,103.3,57.5,103.4,57.2,103.1z"/>
		<path class="st0" d="M100.3,55.8c0.1,0.2,0.3,0.3,0.4,0.5c-0.2,0.1-0.3,0.1-0.4-0.1C100.2,56.1,100.2,56,100.3,55.8z"/>
		<path class="st0" d="M45.8,106.4c0,0.3,0.1,0.5,0.1,0.7C45.5,106.9,45.5,106.7,45.8,106.4z"/>
		<path class="st0" d="M44.7,107.4c0.4-0.2,0.6-0.1,0.6,0.3C45.1,107.6,45,107.5,44.7,107.4z"/>
		<path class="st0" d="M101.2,66.5c0.1-0.4,0.2-0.4,0.6-0.3C101.6,66.3,101.4,66.4,101.2,66.5z"/>
		<path class="st0" d="M56.8,106c-0.1-0.1-0.1-0.2-0.1-0.3c0-0.1,0-0.2-0.1-0.3C56.9,105.5,57,105.7,56.8,106z"/>
		<path class="st0" d="M98,49.4c-0.2,0.2-0.4,0.2-0.6,0C97.6,49.4,97.8,49.4,98,49.4z"/>
		<path class="st0" d="M89.2,56.3c0.1-0.2,0.1-0.4,0.2-0.6C89.5,56,89.5,56.1,89.2,56.3z"/>
		<path class="st0" d="M56.8,103.7c0.1,0.3,0.1,0.4-0.2,0.5C56.7,104,56.7,103.8,56.8,103.7z"/>
		<path class="st0" d="M118.8,54.6c-0.1,0.2-0.2,0.3-0.4,0.4C118.4,54.7,118.5,54.7,118.8,54.6z"/>
		<path class="st0" d="M77.5,103.5c-0.1,0.2-0.1,0.4-0.2,0.6C77.1,103.8,77.2,103.7,77.5,103.5z"/>
		<path class="st0" d="M33.2,52.2c0-0.3,0-0.4,0.4-0.4C33.4,51.9,33.3,52,33.2,52.2z"/>
		<path class="st0" d="M24.2,40.9c-0.3,0.2-0.4,0.2-0.6-0.1C23.8,40.8,24,40.8,24.2,40.9z"/>
		<path class="st0" d="M58.2,107.4c0.3-0.2,0.4-0.1,0.6,0.2C58.6,107.5,58.4,107.5,58.2,107.4z"/>
		<path class="st0" d="M118.8,47.6c-0.3-0.1-0.3-0.1-0.4-0.4C118.5,47.4,118.7,47.5,118.8,47.6z"/>
		<path class="st0" d="M61.3,103.2c-0.3,0-0.4-0.1-0.4-0.4C61.1,103,61.2,103.1,61.3,103.2z"/>
		<path class="st0" d="M94.2,66.4c-0.2-0.1-0.3-0.1-0.5-0.2C94.1,66.1,94.1,66.1,94.2,66.4z"/>
		<path class="st0" d="M28.3,58.9c0-0.2,0-0.4,0.3-0.5C28.6,58.6,28.5,58.8,28.3,58.9z"/>
		<path class="st0" d="M113.3,56.7c-0.2,0-0.3-0.1-0.5-0.1C113.1,56.5,113.1,56.5,113.3,56.7z"/>
		<path class="st0" d="M117.5,55.9c0-0.2,0.1-0.3,0.3-0.3C117.7,55.7,117.6,55.8,117.5,55.9z"/>
		<path class="st0" d="M98.4,51.9c0,0.2,0.1,0.3,0.1,0.5C98.2,52.2,98.2,52.2,98.4,51.9z"/>
		<path class="st0" d="M117.9,46.7c-0.2,0-0.4-0.1-0.4-0.3C117.6,46.5,117.7,46.6,117.9,46.7z"/>
		<path class="st0" d="M112.8,45.8c0.1,0,0.1-0.1,0.2-0.1c0.1,0,0.2,0,0.3-0.1C113.2,45.8,113.2,45.8,112.8,45.8z"/>
		<path class="st0" d="M104,57.9c0.1,0,0.2,0,0.3,0c0,0.1-0.1,0.2-0.1,0.3C104.1,58.1,104.1,58,104,57.9z"/>
		<path class="st0" d="M31.8,48.6c-0.1,0-0.2,0-0.3,0c0,0,0,0,0,0C31.6,48.6,31.7,48.6,31.8,48.6C31.8,48.6,31.8,48.6,31.8,48.6z"/>
		<path class="st0" d="M47.6,103.1c0.1,0,0.2,0.1,0.3,0.1c0,0,0,0,0,0.1C47.8,103.2,47.7,103.2,47.6,103.1
			C47.6,103.1,47.6,103.1,47.6,103.1z"/>
		<path class="st0" d="M21.8,48c0.1,0,0.2,0,0.3-0.1c0,0,0,0,0,0.1C22,48,21.9,48,21.8,48C21.8,48,21.8,48,21.8,48z"/>
		<path class="st0" d="M34.3,50.8c0,0.1-0.1,0.2-0.1,0.2C34.1,50.9,34.2,50.8,34.3,50.8L34.3,50.8z"/>
		<path class="st0" d="M67.9,104.1c0.1,0,0.2,0,0.2,0c0,0,0,0,0,0C68,104.2,67.9,104.2,67.9,104.1C67.9,104.2,67.9,104.2,67.9,104.1
			z"/>
		<path class="st0" d="M43.7,100.9c0,0,0,0.1,0,0.1c0,0,0,0-0.1,0C43.7,101,43.7,101,43.7,100.9C43.7,100.9,43.7,100.9,43.7,100.9z"
			/>
		<path class="st0" d="M33.4,48.6c0,0,0.1,0,0.1,0c0,0,0,0,0,0C33.5,48.6,33.4,48.6,33.4,48.6C33.4,48.6,33.4,48.6,33.4,48.6z"/>
		<path class="st0" d="M35.1,50c0,0,0.1-0.1,0.1-0.1c0,0,0,0,0,0C35.2,50,35.2,50,35.1,50C35.1,50,35.1,50,35.1,50z"/>
		<path class="st0" d="M98.7,67.1c-0.1,0-0.1,0-0.1,0C98.6,67.1,98.6,67.1,98.7,67.1C98.7,67.1,98.7,67.1,98.7,67.1z"/>
		<path class="st0" d="M98.3,50.2c0,0,0-0.1,0-0.1C98.3,50.2,98.3,50.2,98.3,50.2C98.3,50.2,98.3,50.2,98.3,50.2z"/>
		<path class="st0" d="M22.2,40.9c-0.1,0-0.1,0-0.2,0.1c0,0,0,0,0-0.1C22.1,40.9,22.1,40.9,22.2,40.9L22.2,40.9z"/>
		<path class="st0" d="M68.1,109.3c-0.1,0-0.1,0-0.1,0C67.9,109.2,68,109.2,68.1,109.3C68,109.2,68,109.2,68.1,109.3z"/>
		<path class="st0" d="M91.3,52.3c0.1,0.1,0,0.2-0.1,0.2l0,0C91.2,52.4,91.2,52.3,91.3,52.3L91.3,52.3z"/>
		<path class="st0" d="M60.2,107.4C60.2,107.3,60.3,107.3,60.2,107.4c0.1,0,0.1,0,0.1,0C60.3,107.3,60.2,107.3,60.2,107.4
			L60.2,107.4z"/>
		<path class="st0" d="M60.2,107.3C60.2,107.4,60.2,107.4,60.2,107.3C60.1,107.4,60.1,107.4,60.2,107.3
			C60.1,107.4,60.2,107.4,60.2,107.3L60.2,107.3z"/>
		<path class="st0" d="M18.5,48.1C18.5,48.1,18.5,48,18.5,48.1C18.4,48,18.4,48,18.5,48.1C18.5,48,18.5,48.1,18.5,48.1L18.5,48.1z"
			/>
		<path class="st0" d="M18.6,48.2c0,0,0-0.1-0.1-0.1l0,0C18.5,48.1,18.5,48.1,18.6,48.2L18.6,48.2z"/>
		<path class="st0" d="M26.4,62.5C26.5,62.5,26.5,62.5,26.4,62.5C26.5,62.5,26.5,62.5,26.4,62.5C26.5,62.5,26.5,62.5,26.4,62.5
			L26.4,62.5z"/>
		<path class="st0" d="M91.1,52.4C91.1,52.4,91.1,52.4,91.1,52.4C91.1,52.4,91.1,52.4,91.1,52.4C91.1,52.4,91.1,52.4,91.1,52.4z"/>
		<path class="st0" d="M34.3,50.8C34.3,50.8,34.3,50.8,34.3,50.8C34.3,50.8,34.3,50.8,34.3,50.8L34.3,50.8z"/>
		<polygon class="st0" points="26.5,62.5 26.5,62.5 26.4,62.5 		"/>
		<path class="st0" d="M22.2,40.9C22.2,40.9,22.2,40.9,22.2,40.9C22.2,40.9,22.2,40.9,22.2,40.9C22.2,40.9,22.2,40.9,22.2,40.9z"/>
		<path class="st0" d="M18.6,48.2C18.6,48.2,18.6,48.2,18.6,48.2C18.6,48.2,18.6,48.2,18.6,48.2L18.6,48.2z"/>
		<path class="st0" d="M91.3,52.3C91.3,52.3,91.3,52.3,91.3,52.3C91.3,52.3,91.3,52.3,91.3,52.3C91.3,52.3,91.3,52.3,91.3,52.3z"/>
	</g>
</g>
<g id="cut_line-_do_not_print">
</g>
</svg>
