<svg version="1.1" xmlns="http://www.w3.org/2000/svg" x="0px" y="0px" width="215px" height="40px" viewBox="0 0 215 40">
<path d="M75.554,21.596c1.263-0.07,2.315-0.563,3.157-1.404c0.771,0.841,1.191,1.193,1.191,3.226c0,2.385-2.593,4.911-4.978,4.911h-5.893c-1.895,0-3.508-1.684-3.508-3.647v-8.768c0-1.964,1.543-3.577,3.508-3.577h5.611c2.455,0,4.489,1.963,4.489,4.559c0,2.104-1.543,3.928-3.578,4.419C75.344,21.385,75.344,21.596,75.554,21.596z M80.185,20.823v-4.84c0-1.964,1.613-3.646,3.647-3.646c1.963,0,3.576,1.613,3.576,3.646c0,0.21,0,4.208,0,4.419c0,0.281,0.211,0.562,0.491,0.562c0.281,0,0.491-0.28,0.491-0.562v-4.419c0-1.964,1.613-3.646,3.648-3.646c1.893,0,3.576,1.613,3.576,3.646v4.84c0,4.208-3.508,7.646-7.645,7.646C83.621,28.539,80.185,25.031,80.185,20.823z M106.347,21.596c1.262-0.07,2.315-0.563,3.157-1.404c0.771,0.841,1.193,1.193,1.193,3.226c0,2.385-2.597,4.911-4.982,4.911h-5.891c-1.895,0-3.507-1.684-3.507-3.647v-8.768c0-1.964,1.542-3.577,3.507-3.577h5.612c2.453,0,4.488,1.963,4.488,4.559c0,2.104-1.544,3.928-3.578,4.419C106.138,21.385,106.138,21.596,106.347,21.596z M121.077,21.596c1.263-0.07,2.313-0.563,3.156-1.404c0.771,0.841,1.192,1.193,1.192,3.226c0,2.385-2.596,4.911-4.979,4.911h-5.893c-1.895,0-3.507-1.684-3.507-3.647v-8.768c0-1.964,1.543-3.577,3.507-3.577h5.611c2.455,0,4.489,1.963,4.489,4.559c0,2.104-1.543,3.928-3.577,4.419C120.866,21.385,120.866,21.596,121.077,21.596z M125.847,24.682v-8.768c0-1.964,1.613-3.577,3.577-3.577s3.577,1.613,3.577,3.577l-0.071,5.261h0.773c4.699,0,4.699,7.154,0,7.154h-4.209C127.39,28.329,125.776,26.785,125.847,24.682z M141.348,12.407h5.893c2.805,0,4.419,3.226,2.946,5.471c-0.703,1.192-1.754,1.542-3.087,1.612c-0.14,0-0.14,0.21,0,0.281c1.263,0.14,2.456-0.14,3.366-1.052c0.632,1.333,0.351,3.086-0.631,4.068c-0.7,0.771-1.544,0.981-2.525,1.121c-0.14,0-0.14,0.281,0,0.281c1.193,0.141,2.315-0.142,3.156-1.122c0.212,0.35,0.351,0.771,0.351,1.754c0,1.401-1.052,3.577-3.576,3.577h-5.893c-1.963,0-3.577-1.614-3.577-3.577v-8.839C137.701,14.02,139.244,12.407,141.348,12.407z M151.239,24.822v-8.769c0-1.964,1.611-3.646,3.716-3.646h4.42c3.577,0,6.383,2.875,6.383,6.382c0,3.578-2.946,6.453-6.523,6.383l-0.421-2.175c-0.07-0.209-0.21-0.141-0.21,0.071v1.823c0,1.965-1.613,3.647-3.648,3.647C152.922,28.539,151.239,26.856,151.239,24.822z M158.604,18.019v1.542c0.14,0.07,0.21,0.139,0.351,0.139c0.49,0,0.842-0.42,0.842-0.842c0-0.42-0.421-0.84-0.842-0.84C158.813,17.947,158.743,17.947,158.604,18.019z M166.179,24.752v-8.769c0-1.964,1.612-3.576,3.646-3.576h5.051c3.506,0,6.383,2.875,6.383,6.382c0,2.175-1.053,4.139-2.736,5.331c-0.141,0.07,0,0.281,0.141,0.211c0.772-0.351,1.403-0.843,2.035-1.475c0.981,1.405,0.842,3.298-0.421,4.63c-1.264,1.264-3.718,1.544-4.91-0.14l-1.964-2.315c-0.141,1.894-1.613,3.368-3.578,3.368C167.791,28.399,166.179,26.785,166.179,24.752z M173.333,18.158V19.7c0.141,0.071,0.21,0.071,0.42,0.071c0.491,0,0.843-0.351,0.843-0.841c0-0.492-0.352-0.842-0.843-0.842C173.543,18.088,173.403,18.088,173.333,18.158z M198.162,20.333c0,4.49-3.646,8.136-8.205,8.136c-4.419,0-8.136-3.646-8.136-8.136c0-4.489,3.717-8.136,8.136-8.136C194.445,12.196,198.162,15.843,198.162,20.333z M189.115,20.333c0,0.491,0.42,0.842,0.842,0.842c0.489,0,0.842-0.422,0.842-0.842c0-0.491-0.421-0.842-0.842-0.842C189.535,19.49,189.115,19.842,189.115,20.333z M202.231,12.407h5.892c1.964,0,3.577,1.612,3.577,3.576c0,1.544-1.052,3.016-2.524,3.437c-0.281,0.07-0.701,0.141-1.122,0.141c-0.212,0.07-0.212,0.281,0,0.281c0.771,0.14,1.543,0.07,2.313-0.21c0.14,0.35,0.281,0.842,0.281,1.402c0,1.964-1.612,3.577-3.577,3.577h-1.192v0.352c0,1.963-1.614,3.577-3.576,3.577c-1.965,0-3.579-1.614-3.579-3.577c0-2.945,0-6.032,0-8.908C198.724,13.669,199.986,12.407,202.231,12.407z"/>
<path d="M22.893,13.055L22.893,13.055L22.893,13.055z M22.323,12.39L22.323,12.39L22.323,12.39z M26.791,8.11L26.791,8.11L26.791,8.11z M22.989,12.864c-0.287-0.286-0.478-0.666-0.571-0.951C22.512,12.294,22.702,12.578,22.989,12.864L22.989,12.864z M22.228,12.009c-0.096-0.096-0.096-0.285-0.096-0.382C22.132,11.819,22.132,11.914,22.228,12.009z M22.228,11.343c0,0.19,0.095,0.284,0.095,0.476C22.323,11.627,22.228,11.534,22.228,11.343z M26.412,8.208c0.095,0,0.095,0,0.189,0.094l0,0C26.601,8.302,26.506,8.302,26.412,8.208L26.412,8.208z M28.597,26.934c0.095-0.093,0.285-0.093,0.38-0.093C28.882,26.841,28.692,26.841,28.597,26.934z M30.213,26.841L30.213,26.841c-0.095,0-0.19-0.098-0.381-0.098C29.928,26.743,30.118,26.841,30.213,26.841z M28.216,26.553L28.216,26.553c-0.095,0-0.095-0.095-0.189-0.095C28.122,26.458,28.216,26.458,28.216,26.553z M21.943,15.622L21.943,15.622L21.943,15.622L21.943,15.622z M21.088,14.101c0,0.188,0.095,0.285,0.095,0.38C21.183,14.386,21.088,14.196,21.088,14.101z M27.361,26.173c0.095,0,0.095,0.096,0.095,0.096S27.456,26.173,27.361,26.173z M21.943,15.432c-0.285-0.19-0.476-0.477-0.666-0.761C21.373,14.955,21.658,15.241,21.943,15.432z M48.084,17.998c0-0.096,0-0.096-0.096-0.19C47.989,17.902,47.989,17.998,48.084,17.998z M48.274,18.569c0-0.097-0.095-0.19-0.095-0.286C48.179,18.378,48.179,18.472,48.274,18.569z M53.028,18.569c0,0,0,0.095-0.095,0.095C53.028,18.664,53.028,18.569,53.028,18.569z M53.217,18.092v0.095C53.217,18.187,53.217,18.187,53.217,18.092z M48.559,18.949c-0.096-0.097-0.189-0.191-0.189-0.286C48.37,18.758,48.463,18.853,48.559,18.949z M48.939,19.329c-0.095-0.096-0.189-0.19-0.285-0.286C48.655,19.139,48.75,19.233,48.939,19.329z M48.939,19.329c0.381,0.284,0.857,0.476,1.332,0.57l0,0C49.7,19.899,49.32,19.613,48.939,19.329z M30.213,5.925c-0.19-0.285-0.476-0.476-0.857-0.571C29.737,5.545,30.023,5.733,30.213,5.925z M29.262,5.354c-0.095-0.094-0.284-0.094-0.379-0.188C28.978,5.26,29.167,5.26,29.262,5.354z M25.651,7.827c0.189,0,0.378,0.095,0.57,0.095C26.03,7.827,25.84,7.827,25.651,7.827z M52.077,19.52c-0.095,0-0.095,0.094-0.189,0.094C51.982,19.613,52.077,19.613,52.077,19.52z M52.743,19.043L52.743,19.043L52.743,19.043z M52.457,19.329c-0.095,0-0.095,0.095-0.189,0.095C52.362,19.424,52.457,19.329,52.457,19.329z M55.214,8.967c0.095,0.095,0.189,0.19,0.379,0.284C55.498,9.158,55.404,9.062,55.214,8.967z M26.506,26.458c0-0.095,0.095-0.189,0.095-0.189l0,0C26.506,26.363,26.506,26.363,26.506,26.458z M51.602,24.558L51.602,24.558L51.602,24.558z M30.689,26.934L30.689,26.934c0.095,0,0.285,0,0.381,0C30.974,26.841,30.878,26.841,30.689,26.934z M54.833,8.777c-0.095,0-0.19-0.096-0.38-0.096C54.548,8.777,54.643,8.777,54.833,8.777L54.833,8.777z M54.833,8.777c0.095,0,0.285,0.094,0.381,0.19C55.023,8.872,54.928,8.872,54.833,8.777z M53.123,20.089v-0.094V20.089c-1.045-0.094-1.331,0.57-1.331,0.57c0,0.096-0.095,0.096-0.095,0.096c-0.096,0-0.096,0-0.19,0c-0.095-0.096-0.19-0.191-0.095-0.286c0,0,0.095-0.095,0.189-0.284l-1.046,0.094l-4.276,0.381c0,0.189,0,0.286,0,0.476c-0.096,1.614-0.856,3.138-2.187,4.279c-1.237,0.949-2.757,1.52-4.373,1.52c-0.19,0-0.286,0-0.476,0c-0.665,0-1.331-0.19-1.996-0.381v0.097c0,0.284-0.095,0.568-0.285,0.854c0,0.098-0.096,0.098-0.19,0.098l0,0h-0.096c-0.094-0.098-0.094-0.191-0.094-0.288c0.094-0.189,0.189-0.472,0.189-0.663c0-0.097,0-0.191,0-0.286v-0.095c-0.096-0.19-0.189-0.476-0.381-0.666c-0.285-0.285-0.57-0.477-1.045-0.477c-0.095,0-0.285,0-0.381,0h-0.094c-0.191,0.097-0.38,0.191-0.572,0.288h-0.095c-0.095,0-0.095,0-0.095-0.097c0,0-0.096-0.095,0-0.095c0-0.097,0-0.097,0.095-0.097c0.095-0.094,0.286-0.189,0.475-0.282c-1.045-1.047-1.615-2.472-1.71-3.898c-0.096-0.097-0.19-0.19-0.285-0.19c-0.096,0-0.191,0-0.286,0.094c-0.094,0.763-0.285,1.427-0.665,2.091l0,0l0,0c0.189-0.094,0.476-0.094,0.759-0.094c0.096,0,0.191,0.094,0.191,0.19c0,0.096-0.096,0.189-0.191,0.189l0,0c-0.379,0-0.759,0.095-1.045,0.285l0,0c0,0-0.095,0-0.095,0.095l0,0c-0.57,0.287-0.856,0.761-1.045,1.331v0.096c0,0.094,0,0.19,0,0.285c0,0.569,0.189,1.141,0.57,1.616l0.096,0.096c0.096,0,0.285,0,0.379,0s0.285,0,0.381,0.094c0.855,0.189,1.331,1.141,1.045,1.901c-0.286,0.76-1.141,1.331-1.901,1.046c-0.476-0.189-0.855-0.569-1.046-1.046c-0.284,0.097-0.57,0.191-0.854,0.097c-0.476-0.097-0.761-0.571-0.761-0.951c-0.095,0-0.189,0-0.285,0c-0.379-0.097-0.57-0.381-0.57-0.761c-0.096,0-0.096,0-0.19,0c-0.285-0.097-0.476-0.38-0.38-0.76c0-0.097,0.095-0.191,0.095-0.191c-0.19,0-0.379,0-0.474,0c-0.096,0-0.286,0-0.381,0c-1.332-0.095-2.662-0.665-3.613-1.521c0.855,3.137,2.567,5.895,4.943,7.891c0-0.095,0-0.19,0.095-0.285c0.096-0.095,0.285-0.095,0.38,0.095c0.38,0.571,0.856,1.142,1.426,1.616c0,0,0,0,0.095,0c1.618,1.427,3.708,2.377,5.99,2.47c1.141,0.098,2.187,0,3.233-0.378c1.236-0.381,2.376-0.855,3.326-1.712c0.096,0,0.096-0.094,0.19-0.094c0.095,0,0.095,0,0.19,0.094l0,0c0,0.096,0.096,0.096,0.096,0.189c0,0.097,0,0.097-0.096,0.191c-0.474,0.38-0.95,0.666-1.521,0.95c5.418-1.331,9.791-5.514,11.218-11.027l0,0l0,0c0-0.093,0-0.093,0.095-0.188c0,0,0,0,0.096,0l0,0h-0.761l0.285-0.191c0.38-0.285,1.045-0.761,1.71-1.618c0.476-0.567,0.666-1.423,0.476-2.091C53.788,20.374,53.502,20.185,53.123,20.089z M32.97,27.789L32.97,27.789c0,0,0-0.097,0.095-0.188c0.096-0.098,0.189-0.191,0.285-0.288c0.189-0.189,0.476-0.379,0.761-0.569c0.855-0.475,1.521,0.098,1.331,0.569c0.19,0.19,0.38,0.38,0.475,0.571c0.19-0.283,0.476-0.475,0.856-0.571c0.38-0.095,0.76,0.097,1.045,0.38c0.096-0.283,0.381-0.475,0.666-0.475s0.57,0.095,0.76,0.285l0,0c0-0.38,0.38-0.662,0.76-0.569c0.381,0.096,0.666,0.379,0.571,0.759c0,0.381-0.382,0.668-0.76,0.571c-0.096,0-0.191-0.094-0.286-0.094c0,0.475-0.285,0.854-0.76,0.951c-0.19,0-0.38,0-0.57-0.097c-0.096,0.477-0.475,0.856-1.045,0.951c-0.476,0.095-0.856-0.095-1.141-0.475c-0.19,0.569-0.76,0.949-1.332,1.044c-0.951,0.097-1.806-0.475-1.995-1.424C32.589,28.55,32.78,28.17,32.97,27.789z M42.761,30.07c-0.95,1.616-5.133,3.518-5.324,3.612l0,0c-1.236,0.476-2.472,0.665-3.802,0.665c-1.045-0.095-2.187-0.38-3.232-0.854c-1.806-0.856-3.327-2.282-3.708-3.612c-0.094-0.571-0.094-0.856,0.096-0.95c0.189-0.189,0.665,0,1.331,0.379c1.045,0.571,2.757,1.427,4.943,1.617c4.088,0.189,5.704-0.665,7.128-1.332l0.382-0.19c0.76-0.38,1.995-0.951,2.471-0.474C43.142,29.121,43.046,29.501,42.761,30.07z M41.715,34.729L41.715,34.729L41.715,34.729z M30.878,23.226L30.878,23.226L30.878,23.226L30.878,23.226c0.57-0.854,0.856-1.805,0.856-2.757c0.095-1.52-0.381-2.946-1.426-4.087c-1.046-1.14-2.377-1.806-3.896-1.9c-1.522-0.096-2.948,0.38-4.088,1.425c-1.141,1.044-1.807,2.376-1.901,3.898c-0.095,1.426,0.38,2.853,1.331,3.992l0.096,0.096c1.044,1.14,2.376,1.805,3.897,1.9c0.95,0.094,1.9-0.096,2.756-0.476c0,0,0,0,0.096,0c0.285-0.285,0.665-0.568,1.045-0.568c0.095-0.096,0.189-0.096,0.285-0.191C30.023,23.986,30.403,23.511,30.878,23.226z M24.604,21.611c-0.379,0-0.665-0.381-0.665-0.763c0-0.38,0.38-0.664,0.76-0.664c0.381,0,0.666,0.379,0.666,0.761C25.365,21.325,24.985,21.611,24.604,21.611z M28.597,26.934L28.597,26.934c0.095-0.093,0.285-0.093,0.38-0.093c0.094,0,0.284,0,0.379,0l0,0c0-0.098,0.191-0.098,0.476-0.098c0.096,0,0.191,0.098,0.381,0.098c-0.381-0.478-0.571-1.048-0.476-1.618c0-0.097,0-0.097,0-0.19c-0.381,0-0.666,0.19-0.855,0.475l0,0l0,0c-0.095,0.19-0.19,0.38-0.19,0.571l0,0l0,0c0,0.19,0,0.285,0.096,0.475C28.692,26.743,28.692,26.841,28.597,26.934L28.597,26.934z M35.346,24.653c0.76,0.096,1.426,0.569,1.616,1.33c0.665,0.285,1.331,0.475,2.091,0.475c1.617,0.095,3.232-0.38,4.468-1.426s1.997-2.375,2.092-3.897c0.19-3.137-2.377-5.894-5.798-6.083c-3.423-0.19-6.371,2.186-6.561,5.322c-0.094,1.617,0.571,3.137,1.807,4.375C35.156,24.653,35.251,24.653,35.346,24.653z M38.103,20.849c0.381,0,0.761,0.382,0.666,0.763c0,0.38-0.38,0.761-0.761,0.664c-0.38,0-0.76-0.38-0.665-0.759C37.248,21.135,37.627,20.755,38.103,20.849z M28.216,25.887c-0.285,0.097-0.571,0.191-0.855,0.286c0.095,0,0.095,0.096,0.095,0.096c0.096,0.095,0.096,0.095,0.096,0.189c0.189-0.095,0.284-0.095,0.475,0c0.095,0,0.095,0.095,0.189,0.095c0-0.095,0-0.189,0-0.38l0,0l0,0l0,0V25.887z M54.453,8.493c-0.475,0-0.951,0.095-1.331,0.378c-0.475-0.57-1.045-0.95-1.806-0.95c-0.379,0-0.761,0.094-1.14,0.188c-0.379-1.044-1.332-1.71-2.377-1.71c-0.854-0.096-1.616,0.285-2.186,0.856h0.095l-0.095,0.095c-0.096,0.095-0.096,0.095-0.19,0.19l-0.095,0.096l-0.095-0.096c-2.188-1.521-4.849-2.473-7.51-2.567C31.07,4.595,24.794,8.777,22.512,15.241c1.141-0.855,2.568-1.236,3.995-1.14c3.326,0.188,5.893,2.946,5.798,6.273l0,0v0.095c0.094,0,0.189,0,0.285,0s0.19,0,0.19,0.095v-0.095l0,0c0,0,0,0,0-0.095c0.19-3.423,3.327-5.988,7.035-5.799c3.327,0.191,5.988,2.662,6.273,5.799l3.042-0.285l0,0l1.141-0.094c-0.474-0.096-0.951-0.286-1.332-0.571l0,0c-0.095-0.095-0.189-0.19-0.285-0.285c0,0,0-0.096-0.096-0.096c-0.096-0.094-0.189-0.19-0.189-0.285c0-0.094-0.096-0.094-0.096-0.189c0-0.097-0.095-0.19-0.095-0.286s-0.095-0.19-0.095-0.285c0-0.096,0-0.096-0.096-0.19c0-0.189,0-0.285,0-0.476c0-0.38,0.19-0.854,0.381-1.138c0.855,0,1.711-0.382,2.377-1.046c0.379,0.665,1.141,1.046,1.901,1.141c0.095,0,0.189,0,0.285,0c0.284,0.474,0.379,0.95,0.379,1.425c0,0.189,0,0.285-0.095,0.475v0.096c0,0.096-0.095,0.189-0.095,0.286c0,0,0,0.095-0.095,0.095c-0.095,0.094-0.19,0.189-0.19,0.379l-0.095,0.096c-0.095,0.095-0.095,0.095-0.189,0.19c-0.097,0-0.097,0.095-0.191,0.095c-0.094,0-0.094,0.096-0.189,0.096c-0.096,0-0.096,0.094-0.19,0.094c-0.095,0.096-0.285,0.096-0.381,0.191l0.666-0.096v-0.096h0.094c0,0,0,0,0.095,0c0.666-0.475,1.142-1.141,1.142-1.995c0-0.476-0.097-0.951-0.381-1.425c1.141-0.191,1.997-1.046,1.997-2.188c0-0.476-0.096-0.856-0.286-1.236c0.856-0.285,1.427-1.045,1.522-1.996C56.545,9.632,55.688,8.588,54.453,8.493z M45.613,7.542l0.095-0.096c0.475-0.57,1.236-0.95,2.09-0.856c0.952,0.095,1.807,0.667,2.187,1.618c-0.57,0.285-0.951,0.759-1.141,1.33c-0.094,0-0.19,0-0.286,0c-1.235-0.096-2.28,0.475-2.946,1.426c-0.38-0.477-0.57-1.141-0.57-1.806C45.043,8.493,45.233,8.016,45.613,7.542z M50.651,15.146C50.651,15.052,50.651,15.052,50.651,15.146C50.651,15.052,50.651,15.052,50.651,15.146c0-0.095,0-0.095,0-0.095C50.651,14.955,50.651,14.955,50.651,15.146C50.651,15.052,50.651,15.052,50.651,15.146C50.651,15.052,50.651,15.052,50.651,15.146z M55.023,14.101c-0.095,1.14-1.14,2.092-2.375,1.995c-0.76,0-1.427-0.475-1.807-1.141l0,0c0,0,0,0,0-0.094c-0.095,0-0.095,0-0.19,0l0,0l0,0c0,0,0,0-0.096,0.094c-0.095,0.097-0.095,0.097-0.189,0.191s-0.095,0.095-0.189,0.095c-0.095,0.096-0.095,0.096-0.191,0.096c-0.095,0-0.188,0.095-0.188,0.095c-0.097,0-0.191,0.095-0.191,0.095s-0.095,0-0.095,0.095c-0.19,0.095-0.286,0.095-0.477,0.095h-0.095c-0.189,0-0.285,0-0.476,0l0,0c-0.094,0-0.094,0-0.189,0c-1.71-0.095-3.041-1.615-2.946-3.327c0.095-1.712,1.616-3.042,3.327-2.948c0.096,0,0.096,0,0.19,0c0,0.19-0.094,0.286-0.094,0.475v0.096l0,0l0,0c0,0.286,0.094,0.571,0.189,0.855c0,0.096,0.095,0.189,0.095,0.189c0,0.096,0.096,0.096,0.096,0.19c0,0.096,0.095,0.096,0.095,0.191c0.096,0.095,0.096,0.188,0.19,0.188l0.096,0.097c0.095,0.095,0.095,0.095,0.189,0.189c0.097,0.096,0.097,0.096,0.19,0.096c0.19,0.189,0.475,0.285,0.76,0.285c0-0.096,0.096-0.189,0.096-0.189c-1.141-0.191-1.902-1.237-1.807-2.377c0.095-1.235,1.142-2.187,2.377-2.187c0.666,0,1.237,0.38,1.617,0.856c-0.477,0.38-0.76,0.95-0.76,1.615c0,0.38,0,0.665,0.189,1.044c0,0.096,0.095,0.19,0.095,0.19c0.381,0.666,0.951,1.046,1.806,1.142c0.19,0,0.38,0,0.571,0C54.928,13.245,55.023,13.625,55.023,14.101z M56.259,11.057c0,0.096,0,0.19-0.095,0.286c-0.189,0.762-0.855,1.332-1.616,1.426c-0.095,0-0.19,0-0.19,0c-0.096,0-0.096,0-0.19,0s-0.189,0-0.285,0c-0.095,0-0.095,0-0.19,0c-0.855-0.285-1.425-1.045-1.331-1.996c0-0.571,0.286-1.141,0.761-1.426c0,0,0,0,0.095-0.096c0.381-0.284,0.761-0.38,1.236-0.38c0.095,0,0.286,0,0.38,0.096l0,0l0,0l0,0c0.095,0,0.285,0.095,0.381,0.19c0,0,0,0,0.095,0c0.095,0.094,0.189,0.189,0.379,0.284l0,0c0.096,0.096,0.19,0.19,0.286,0.286l0,0c0.189,0.285,0.284,0.571,0.284,0.856c0,0.094,0,0.189,0,0.284C56.259,10.964,56.259,10.964,56.259,11.057C56.259,10.964,56.259,10.964,56.259,11.057z M21.183,12.198c-0.19,0.38-0.285,0.763-0.381,1.236c-0.095,1.047,0.381,1.903,1.046,2.282h0.095l0,0l0,0l-0.095-0.095v-0.095l0,0l0,0c-0.286-0.19-0.476-0.475-0.666-0.76v-0.096c-0.095-0.096-0.095-0.285-0.095-0.382c0-0.188-0.096-0.379,0-0.664c0.095-0.761,0.474-1.521,0.95-1.807c0,0.095,0.095,0.286,0.095,0.379c0,0.096,0.096,0.191,0.191,0.286c0,0,0,0,0,0.094c0.095,0.286,0.285,0.477,0.475,0.667l0,0l0.095-0.284l0,0v-0.097l0,0c-0.284-0.286-0.475-0.666-0.569-0.951v-0.095c-0.095-0.191-0.095-0.285-0.095-0.476s0-0.379,0-0.57c0-0.761,0.38-1.426,0.95-1.902l0,0c0.572-0.57,1.426-0.856,2.377-0.856c0.191,0,0.38,0,0.475,0.095l0,0l0,0c0.096,0,0.191,0.098,0.286,0.098l0,0h0.096c0.095,0,0.095,0,0.189,0.094c0,0,0,0,0.094,0l0.096-0.094l0,0l0.095-0.098l0,0c-0.19-0.095-0.379-0.188-0.57-0.188c-0.19-0.095-0.381-0.095-0.57-0.095c-0.094-0.19-0.094-0.476-0.094-0.667c0.094-1.236,1.329-2.092,2.755-1.995c0.19,0,0.381,0,0.571,0.095c0.094,0,0.284,0.094,0.379,0.189h0.097c0.284,0.19,0.57,0.381,0.855,0.571l0,0l0,0h0.095l0,0h0.095c-0.474-0.571-1.236-0.952-2.091-0.952c-0.666,0-1.236,0.097-1.711,0.38c-0.379-0.189-0.855-0.38-1.235-0.38c-0.57,0-1.141,0.097-1.617,0.38c-0.474-0.38-0.854-0.57-1.332-0.57c-1.139-0.096-2.185,0.76-2.185,1.901c-0.096,0.476,0.095,0.95,0.475,1.427c-0.57,0.38-0.855,1.043-0.855,1.615C19.852,10.868,20.327,11.724,21.183,12.198z M25.365,5.069c0.38,0,0.76,0.097,1.046,0.285C25.84,5.733,25.46,6.4,25.365,7.066c0,0.19,0,0.476,0.095,0.665c-0.856,0-1.71,0.285-2.282,0.763c-0.38-0.285-0.476-0.763-0.476-1.237C22.798,6.021,23.939,5.069,25.365,5.069z M20.517,6.781c0.096-0.951,0.951-1.712,1.995-1.712c0.097,0,0.097,0,0.19,0l0,0c0.096,0,0.096,0,0.19,0l0,0l0,0c0.19,0.191,0.381,0.285,0.571,0.38c-0.286,0.19-0.571,0.476-0.762,0.855c0,0.096-0.094,0.096-0.094,0.191c-0.097,0.189-0.097,0.474-0.097,0.76v0.095v0.095l-0.094,0.096l0,0l0,0c-0.286,0-0.57,0.096-0.856,0.189c-0.095,0-0.095,0.097-0.189,0.097c-0.096,0-0.096,0.095-0.19,0.095c0,0-0.095,0-0.095,0.094l0,0C20.612,7.637,20.517,7.256,20.517,6.781z M20.992,8.302c0.475-0.38,0.951-0.571,1.52-0.475c0.097,0.381,0.19,0.666,0.381,0.95c-0.569,0.57-0.855,1.235-0.95,1.996c0,0.19,0,0.474,0,0.666c-0.285,0.095-0.476,0.38-0.666,0.57c-0.76-0.382-1.236-1.236-1.141-2.092C20.231,9.251,20.517,8.682,20.992,8.302z M20.041,15.146c0.473,0,0.856,0.383,0.856,0.855s-0.384,0.856-0.856,0.856c-0.472,0-0.855-0.384-0.855-0.856S19.569,15.146,20.041,15.146z M21.183,32.257c-0.666,0-1.236,0.476-1.331,1.142c0,0.663,0.475,1.234,1.14,1.234c0.666,0,1.236-0.475,1.331-1.14C22.418,32.827,21.848,32.257,21.183,32.257z M45.423,6.21c1.235,0.095,2.281-0.856,2.376-1.997c0.095-1.139-0.854-2.185-1.996-2.28c-1.236-0.096-2.187,0.856-2.282,1.995C43.331,5.069,44.282,6.116,45.423,6.21z M55.404,16.193c-0.189-0.097-0.476-0.191-0.665-0.097c-0.19,0.097-0.38,0.191-0.571,0.475c-0.285,0.476-0.189,0.951,0.285,1.236c0.095,0.095,0.19,0.095,0.38,0.095c0.095,0,0.189,0,0.285,0c0.19-0.095,0.379-0.189,0.57-0.474c0.19-0.285,0.19-0.477,0.096-0.666C55.784,16.571,55.688,16.381,55.404,16.193z M53.313,7.066c1.616,0.095,2.946-0.95,3.043-2.377c0.095-1.426-1.141-2.661-2.757-2.756c-1.616-0.096-2.948,0.952-3.043,2.376C50.46,5.733,51.697,6.97,53.313,7.066z"/>
</svg>
